<svg xmlns="http://www.w3.org/2000/svg" width="150" height="50" viewBox="0,0,150,50"><path fill="#222" d="M100.06 30.69L100.10 30.73L100.05 30.68Q99.90 30.53 103.29 30.50L103.39 30.60L103.34 30.54Q105.64 30.56 106.70 30.60L106.73 30.62L106.61 30.51Q105.68 27.75 103.25 22.12L103.29 22.15L103.19 22.05Q102.63 23.47 101.58 26.33L101.56 26.31L101.60 26.35Q100.57 29.22 100.00 30.63ZM107.82 33.08L107.82 33.08L107.78 33.04Q105.64 33.15 103.43 33.18L103.33 33.08L103.26 33.02Q101.15 33.19 98.86 33.38L98.85 33.36L98.84 33.35Q97.26 36.72 94.02 40.91L94.08 40.97L93.98 40.87Q91.41 41.49 90.04 41.99L90.19 42.14L90.20 42.15Q95.23 36.40 99.91 23.04L99.86 22.99L99.89 23.02Q101.13 19.57 102.50 16.34L102.44 16.28L102.42 16.26Q102.94 16.47 103.28 16.47L103.16 16.36L104.02 16.49L103.99 16.46Q104.72 17.80 109.56 29.45L109.40 29.30L109.58 29.47Q112.78 37.25 116.78 41.40L116.73 41.35L116.85 41.46Q116.18 41.18 112.30 40.30L112.39 40.39L112.37 40.37Q109.87 37.30 107.89 33.15ZM112.26 40.68L112.29 40.71L112.89 40.81L112.87 40.80Q113.07 40.77 113.37 40.88L113.35 40.86L113.51 41.02Q113.83 41.38 115.66 43.40L115.67 43.40L115.69 43.43Q119.23 44.22 121.63 45.25L121.72 45.35L121.59 45.22Q116.08 40.66 112.08 32.66L112.17 32.75L112.07 32.65Q110.42 29.33 108.97 25.37L109.14 25.53L106.30 17.94L106.24 17.88Q106.03 18.00 105.80 18.00L105.79 17.99L105.24 17.98L105.32 18.06Q104.85 17.28 104.12 15.91L104.23 16.01L104.18 15.96Q103.67 15.99 103.21 15.95L103.30 16.03L103.14 15.88Q102.81 15.97 102.28 15.97L102.32 16.01L102.18 15.87Q100.84 19.86 96.95 30.02L96.89 29.96L96.93 30.00Q93.91 38.06 89.27 42.86L89.10 42.68L89.11 42.69Q90.14 42.28 92.16 41.68L92.28 41.80L92.30 41.82Q91.54 42.68 89.97 44.47L89.96 44.46L89.96 44.46Q91.60 43.74 95.52 42.98L95.63 43.08L95.50 42.95Q99.01 38.70 100.57 35.47L100.47 35.36L100.63 35.53Q102.22 35.25 104.54 35.29L104.62 35.36L104.60 35.35Q107.33 35.37 108.70 35.45L108.76 35.51L108.70 35.45Q109.87 37.73 112.23 40.66ZM104.54 25.99L104.52 25.97L104.53 25.98Q105.49 28.17 106.26 30.26L106.30 30.30L102.92 30.24L102.92 30.23Q103.50 28.80 104.56 26.02Z"/><path d="M7 44 C80 18,63 12,136 12" stroke="#111" fill="none"/><path fill="#333" d="M89.62 37.95L89.53 37.86L89.50 37.83Q89.91 38.92 90.44 40.94L90.45 40.95L90.46 40.96Q86.16 39.55 81.55 39.82L81.58 39.84L81.65 39.92Q77.10 40.20 73.10 42.18L73.00 42.08L73.09 42.17Q73.25 41.41 73.29 41.49L73.33 41.53L73.20 41.40Q76.98 37.49 80.90 33.07L80.96 33.13L80.88 33.05Q85.36 28.13 86.54 23.45L86.55 23.46L86.49 23.40Q86.99 21.69 85.72 20.51L85.72 20.52L85.79 20.59Q84.41 19.30 82.62 19.45L82.58 19.41L82.56 19.40Q82.40 19.54 82.06 19.54L81.93 19.41L81.87 19.35Q80.48 19.48 79.22 20.39L79.14 20.31L79.12 20.29Q77.88 21.72 78.11 24.38L78.12 24.39L78.13 24.40Q76.32 24.04 75.10 23.58L75.17 23.65L75.09 23.57Q74.85 22.12 74.78 20.67L74.92 20.81L74.77 20.66Q74.72 19.05 75.33 17.91L75.40 17.98L75.40 17.98Q77.11 16.53 80.46 16.53L80.48 16.55L82.34 16.65L82.24 16.56Q84.58 16.65 85.53 16.76L85.42 16.66L85.46 16.70Q89.75 17.06 90.01 19.50L90.16 19.64L90.15 19.64Q90.15 20.13 90.07 20.93L90.05 20.90L90.13 20.98Q90.01 21.55 89.86 22.24L89.90 22.27L89.94 22.32Q88.36 30.49 80.79 37.34L80.64 37.19L80.77 37.32Q82.05 37.04 83.42 37.04L83.50 37.12L83.40 37.02Q86.79 37.17 89.65 37.97ZM89.02 17.10L89.04 17.12L89.04 17.12Q87.33 16.36 85.62 16.28L85.74 16.40L82.18 16.08L82.27 16.17Q77.72 15.80 75.51 16.91L75.67 17.07L75.59 16.99Q74.50 18.33 74.50 20.39L74.61 20.50L74.60 20.49Q74.63 21.20 74.93 24.02L74.85 23.94L74.87 23.96Q75.42 24.21 76.60 24.51L76.69 24.60L76.67 25.60L76.65 25.58Q76.50 25.93 76.58 26.47L76.61 26.50L76.72 26.61Q77.83 26.58 80.31 26.81L80.27 26.77L80.27 26.77Q80.26 26.42 80.26 26.08L80.38 26.20L80.29 26.11Q80.36 24.35 81.58 22.99L81.61 23.03L81.56 22.98Q82.69 21.54 84.48 21.66L84.48 21.65L84.47 21.65Q85.29 21.74 86.05 21.89L86.16 22.01L86.16 22.00Q86.10 22.21 86.18 22.63L86.36 22.81L86.33 22.78Q86.35 23.19 86.28 23.53L86.17 23.42L86.28 23.53Q84.95 28.22 80.54 33.05L80.61 33.13L80.58 33.10Q78.47 35.36 73.03 41.42L73.03 41.43L72.92 41.31Q72.80 42.22 72.46 42.79L72.54 42.87L72.36 42.69Q74.10 41.96 75.62 41.43L75.50 41.30L75.49 41.29Q74.89 41.99 73.94 43.47L73.80 43.34L73.83 43.36Q73.76 43.74 73.64 44.09L73.67 44.11L73.67 44.11Q78.51 42.03 83.99 42.22L83.97 42.20L83.92 42.15Q89.69 42.39 94.26 44.75L94.35 44.84L93.22 42.57L93.22 42.58Q92.66 41.33 92.40 40.53L92.29 40.43L92.28 40.42Q91.64 40.08 90.42 39.66L90.51 39.75L90.42 39.66Q90.26 38.93 89.88 37.56L89.80 37.49L89.87 37.55Q87.61 36.92 85.32 36.73L85.41 36.82L85.39 36.80Q90.13 32.29 91.65 24.03L91.59 23.97L91.72 21.01L91.83 21.12Q91.62 19.20 90.41 18.52L90.53 18.64L90.38 18.53L90.49 18.64Q90.36 18.48 90.29 18.48L90.33 18.52L90.33 18.52Q90.11 17.69 89.01 17.08Z"/><path fill="#444" d="M45.98 28.67L46.00 28.70L40.13 28.80L40.14 28.81Q37.13 28.77 34.20 28.69L34.17 28.67L34.24 28.74Q34.38 35.46 32.32 40.98L32.39 41.05L32.33 40.99Q30.43 41.41 28.68 42.10L28.69 42.11L28.81 42.22Q31.50 36.42 31.50 29.76L31.43 29.70L31.48 29.74Q31.48 21.25 27.37 14.21L27.46 14.30L27.37 14.22Q28.92 15.05 31.40 15.85L31.39 15.84L31.42 15.87Q33.55 20.92 34.08 25.80L33.99 25.71L34.06 25.77Q37.15 26.09 40.00 26.05L40.04 26.08L40.15 26.20Q42.82 26.20 46.13 25.93L46.07 25.87L46.09 25.89Q46.52 21.44 48.27 16.34L48.25 16.32L48.36 16.43Q50.21 15.92 52.45 15.09L52.38 15.01L52.37 15.00Q48.84 21.83 48.84 29.79L48.87 29.82L48.77 29.71Q48.85 36.00 51.21 41.33L51.12 41.24L51.16 41.28Q49.67 40.78 47.61 40.47L47.51 40.37L47.63 40.49Q45.96 35.47 46.07 28.77ZM47.26 40.73L47.25 40.72L47.32 40.79Q48.36 40.95 49.46 41.22L49.41 41.16L49.47 41.23Q49.77 41.91 50.42 43.39L50.36 43.33L50.41 43.38Q53.71 44.29 55.50 45.20L55.54 45.24L55.57 45.27Q51.05 39.04 50.75 30.78L50.82 30.85L50.75 30.78Q50.41 22.71 54.06 15.90L54.13 15.96L53.00 16.36L53.03 16.38Q52.56 16.64 51.95 16.79L51.94 16.78L51.89 16.73Q52.30 15.93 53.14 14.36L53.15 14.37L53.23 14.46Q50.59 15.51 47.97 16.01L47.85 15.89L47.92 15.96Q46.24 20.79 45.78 25.47L45.90 25.59L45.90 25.59Q43.30 25.69 40.86 25.69L40.81 25.63L40.92 25.75Q38.45 25.68 35.94 25.53L36.07 25.66L35.99 25.57Q35.85 22.39 34.75 18.32L34.73 18.30L34.68 18.25Q33.94 18.08 32.49 17.70L32.51 17.72L32.52 17.73Q32.17 16.54 31.71 15.51L31.76 15.56L31.67 15.47Q29.03 14.81 26.75 13.55L26.68 13.48L26.65 13.46Q31.32 20.98 31.32 29.77L31.19 29.64L31.15 29.61Q31.18 36.60 28.05 42.73L28.05 42.72L28.20 42.87Q28.91 42.60 30.25 42.03L30.06 41.84L30.21 41.99Q29.81 42.78 29.02 44.30L29.10 44.39L29.11 44.39Q31.79 43.27 34.04 42.85L34.14 42.95L34.04 42.85Q35.94 37.33 36.13 31.16L36.13 31.16L36.22 31.25Q37.74 31.10 40.94 31.06L40.84 30.95L40.95 31.06Q43.86 31.09 45.77 31.17L45.66 31.05L45.67 31.07Q45.96 36.84 47.29 40.76Z"/><path d="M21 39 C68 38,69 46,130 19" stroke="#333" fill="none"/><path fill="#222" d="M53.46 14.25L53.56 14.35L53.61 14.40Q55.97 15.93 57.72 16.34L57.75 16.37L57.81 16.43Q59.22 23.02 59.22 29.61L59.24 29.62L59.19 29.58Q59.21 33.59 58.68 37.59L58.64 37.55L58.62 37.53Q60.90 37.11 63.37 37.18L63.26 37.07L63.22 37.03Q65.73 37.14 67.86 37.87L67.91 37.91L67.88 37.89Q68.22 39.44 68.67 41.00L68.64 40.97L68.72 41.05Q65.24 39.58 61.40 39.85L61.36 39.82L61.31 39.77Q57.57 40.13 54.33 42.04L54.27 41.98L54.26 41.97Q56.48 35.13 56.21 28.12L56.17 28.08L56.18 28.08Q56.08 21.17 53.65 14.44ZM53.77 42.73L53.75 42.71L53.86 42.82Q54.43 42.32 55.80 41.60L55.86 41.67L55.84 41.64Q55.74 42.45 55.21 43.94L55.26 44.00L55.11 43.85Q58.77 42.29 62.62 42.29L62.62 42.30L62.53 42.20Q68.21 42.25 72.32 45.29L72.33 45.31L72.34 45.32Q71.53 43.67 70.51 40.70L70.62 40.82L70.62 40.82Q69.52 40.14 68.65 39.76L68.65 39.75L68.57 39.68Q68.45 38.99 68.15 37.58L68.19 37.63L68.26 37.69Q65.60 36.74 62.59 36.74L62.50 36.66L62.52 36.67Q61.81 36.73 61.01 36.76L61.10 36.85L61.09 36.84Q61.35 31.93 61.28 27.82L61.14 27.68L61.25 27.79Q61.13 23.64 60.79 18.65L60.76 18.62L60.75 18.60Q59.38 18.53 58.58 18.34L58.61 18.37L58.49 18.25Q58.40 17.55 58.17 16.15L58.18 16.16L58.27 16.25Q55.24 15.50 52.99 13.56L52.98 13.54L52.92 13.48Q55.54 20.45 55.81 27.95L55.85 27.98L55.85 27.99Q56.24 35.64 53.84 42.80Z"/><path fill="#222" d="M20.16 27.69L20.23 27.77L20.25 27.78Q16.70 27.65 15.59 31.00L15.56 30.97L15.47 30.88Q15.20 32.06 15.08 33.12L15.16 33.19L15.03 33.06Q14.80 35.08 15.79 36.41L15.95 36.58L15.90 36.52Q17.25 37.72 19.72 37.76L19.60 37.64L19.71 37.75Q21.59 37.84 23.00 36.70L22.89 36.59L22.85 36.55Q24.23 35.37 24.23 33.58L24.32 33.68L24.37 33.73Q24.24 33.26 24.17 32.88L24.31 33.02L24.19 32.90Q23.98 27.78 20.17 27.70ZM20.12 40.22L20.07 40.16L20.13 40.22Q16.30 40.43 14.51 38.41L14.44 38.34L14.58 38.48Q14.32 39.48 13.86 40.85L13.88 40.86L13.82 40.80Q11.91 41.59 10.65 42.16L10.60 42.12L10.64 42.15Q12.86 36.23 12.86 29.72L12.83 29.69L12.74 29.59Q12.82 21.38 9.40 13.54L9.44 13.59L9.33 13.47Q11.61 14.76 12.94 15.22L13.02 15.30L13.05 15.32Q15.05 21.85 15.20 27.68L15.30 27.78L15.23 27.71Q16.68 25.04 20.41 25.08L20.47 25.15L20.53 25.20Q23.73 25.20 25.21 27.07L25.24 27.09L25.12 26.98Q26.99 29.31 27.15 32.89L27.11 32.85L27.21 32.95Q27.29 34.14 27.22 35.74L27.09 35.61L27.16 35.68Q27.11 37.12 26.23 38.26L26.27 38.29L26.31 38.34Q24.38 39.86 20.04 40.13ZM25.48 42.60L25.51 42.64L25.65 42.78Q27.04 42.68 28.53 41.99L28.67 42.14L28.54 42.01Q29.59 40.66 29.63 38.72L29.69 38.78L29.71 38.80Q29.71 38.31 29.56 37.13L29.57 37.14L29.63 37.20Q29.46 36.42 29.34 35.50L29.43 35.59L29.44 35.60Q28.46 30.66 26.90 28.60L27.05 28.76L27.02 28.72Q27.06 28.73 26.26 27.85L26.16 27.75L26.15 27.74Q26.02 27.58 25.49 26.78L25.43 26.72L25.33 26.62Q23.75 24.70 20.40 24.74L20.57 24.91L20.53 24.86Q18.42 24.85 17.17 25.46L17.17 25.46L17.18 25.48Q16.76 20.87 16.15 17.67L16.16 17.68L16.29 17.81Q15.57 17.65 14.08 17.27L13.95 17.15L13.97 17.16Q13.80 16.39 13.35 14.94L13.37 14.96L13.32 14.91Q11.05 14.28 8.80 12.72L8.75 12.67L8.73 12.64Q12.55 20.88 12.55 29.67L12.51 29.64L12.47 29.59Q12.46 36.55 9.99 42.76L10.00 42.77L9.92 42.69Q10.65 42.39 11.98 41.82L12.00 41.84L12.06 41.90Q11.75 42.58 11.14 44.10L11.19 44.15L11.28 44.24Q13.20 43.27 15.98 42.74L15.91 42.67L16.36 40.90L16.26 40.81Q18.61 42.55 25.54 42.67ZM21.84 30.06L21.83 30.05L21.73 29.95Q22.76 29.95 23.30 30.33L23.34 30.37L23.32 30.36Q23.58 30.81 23.81 32.83L23.95 32.96L23.92 32.93Q24.19 34.88 22.93 36.19L22.96 36.22L22.78 36.04Q21.65 37.48 19.71 37.36L19.73 37.39L19.76 37.42Q18.79 37.52 17.31 37.02L17.36 37.07L17.36 37.07Q17.12 36.57 17.12 36.04L16.96 35.87L17.14 36.05Q17.05 32.88 18.61 31.28L18.56 31.23L18.66 31.36L18.48 31.19Q20.07 29.96 21.82 30.04Z"/><path fill="#333" d="M120.73 33.22L120.86 33.36L120.86 33.35Q120.67 36.13 119.49 40.78L119.53 40.82L119.54 40.83Q117.69 41.30 116.09 42.10L116.16 42.17L116.18 42.18Q118.67 35.05 118.40 27.62L118.41 27.64L118.38 27.60Q118.15 20.25 115.07 13.51L114.99 13.43L115.02 13.46Q117.00 14.76 118.86 15.33L118.88 15.34L118.95 15.41Q121.13 22.43 121.13 29.09L120.94 28.90L121.09 29.06Q120.97 30.38 120.89 31.87L120.89 31.87L120.92 31.89Q122.15 30.76 127.37 25.81L127.30 25.75L127.22 25.67Q128.47 25.81 129.46 25.74L129.35 25.63L131.51 25.54L131.52 25.55Q128.28 28.48 123.98 32.25L123.96 32.23L123.95 32.22Q127.48 35.14 133.96 40.97L133.78 40.79L133.95 40.96Q131.08 39.92 128.11 39.73L128.17 39.79L128.15 39.77Q125.60 37.64 120.73 33.22ZM130.76 42.53L130.61 42.38L130.62 42.40Q135.47 43.36 138.59 45.30L138.49 45.19L138.64 45.35Q137.30 43.90 134.68 41.50L134.70 41.52L134.65 41.48Q134.94 41.61 135.21 41.73L135.20 41.72L135.28 41.80Q133.16 39.75 130.91 37.85L130.97 37.90L126.50 33.97L126.54 34.01Q131.41 29.70 133.85 26.81L133.90 26.87L133.89 26.86Q132.61 26.87 130.14 27.14L130.19 27.19L130.07 27.07Q131.80 25.75 132.48 24.91L132.52 24.95L132.48 24.92Q129.61 25.32 127.14 25.32L127.29 25.47L127.14 25.32Q125.72 26.60 122.97 29.26L123.01 29.30L123.14 29.43Q123.02 23.52 122.03 17.70L121.96 17.63L122.04 17.71Q121.34 17.54 119.86 17.28L119.94 17.35L119.81 17.23Q119.62 16.47 119.17 14.99L119.29 15.11L119.17 15.00Q116.56 14.21 114.31 12.65L114.38 12.72L114.40 12.74Q117.80 19.52 118.14 27.63L118.06 27.55L118.06 27.55Q118.51 35.57 115.50 42.81L115.56 42.86L115.43 42.73Q116.11 42.42 117.44 41.77L117.58 41.91L117.55 41.89Q117.24 42.64 116.59 44.08L116.64 44.14L116.64 44.13Q119.47 43.04 121.60 42.66L121.52 42.58L121.47 42.53Q122.20 40.17 122.69 35.91L122.62 35.84L122.60 35.82Q125.29 38.16 130.73 42.50Z"/></svg>