<svg xmlns="http://www.w3.org/2000/svg" width="150" height="50" viewBox="0,0,150,50"><path fill="#444" d="M58.39 26.77L58.38 26.77L58.44 26.83Q60.31 27.06 62.14 27.06L62.01 26.93L62.09 27.01Q63.92 27.05 65.75 26.90L65.65 26.80L65.63 26.78Q65.47 27.38 65.47 28.10L65.56 28.20L65.66 29.63L65.55 29.52Q63.20 29.53 58.44 29.65L58.41 29.61L58.51 29.71Q58.36 35.51 57.22 40.49L57.37 40.64L57.24 40.51Q55.15 41.32 53.67 42.12L53.59 42.04L53.66 42.11Q56.00 35.31 55.73 28.19L55.58 28.04L55.70 28.16Q55.35 20.92 52.69 14.26L52.79 14.36L52.74 14.32Q56.33 16.76 61.09 16.98L61.17 17.07L61.19 17.08Q65.91 17.31 70.06 15.56L70.07 15.57L69.99 15.50Q69.70 16.31 69.47 17.11L69.55 17.19L68.99 18.73L69.07 18.80Q66.22 19.76 63.25 19.91L63.25 19.91L63.39 20.05Q60.44 20.18 57.59 19.46L57.51 19.39L57.54 19.41Q58.31 22.89 58.50 26.89ZM70.55 14.73L70.72 14.89L70.71 14.89Q65.97 16.88 61.10 16.58L61.18 16.66L61.06 16.54Q55.74 16.25 52.01 13.39L52.09 13.47L52.18 13.56Q55.03 20.49 55.34 28.10L55.27 28.04L55.27 28.04Q55.67 36.05 53.16 42.82L53.01 42.68L53.12 42.79Q53.83 42.43 55.20 41.78L55.21 41.79L55.22 41.81Q54.95 42.49 54.38 44.01L54.38 44.01L54.37 44.00Q56.66 42.90 59.55 42.40L59.49 42.34L59.59 42.45Q60.18 37.55 60.37 31.84L60.48 31.95L60.42 31.89Q62.23 31.87 64.05 31.87L63.99 31.80L64.06 31.88Q65.88 31.91 67.71 32.10L67.65 32.03L67.54 31.93Q67.45 31.00 67.45 30.09L67.40 30.04L67.55 28.28L67.49 28.22Q66.79 28.40 65.95 28.40L65.89 28.34L66.00 28.45Q65.99 27.56 66.07 26.53L65.89 26.36L65.89 26.36Q64.57 26.60 63.17 26.60L63.22 26.65L63.11 26.55Q61.86 26.70 60.49 26.66L60.39 26.57L60.33 24.38L60.41 24.46Q60.38 23.36 60.26 22.29L60.24 22.27L60.13 22.16Q61.28 22.40 62.27 22.40L62.10 22.22L62.09 22.22Q67.02 22.39 70.64 20.48L70.59 20.43L70.60 20.45Q71.01 18.54 71.93 15.91L71.91 15.89L71.95 15.93Q70.73 16.85 69.93 17.19L69.79 17.05L69.89 17.14Q70.19 16.42 70.68 14.86Z"/><path fill="#111" d="M121.06 30.54L121.14 30.63L121.21 30.70Q121.22 30.71 124.61 30.67L124.60 30.66L124.47 30.53Q126.73 30.51 127.80 30.54L127.80 30.55L127.94 30.69Q126.77 27.69 124.33 22.06L124.29 22.02L124.44 22.17Q123.80 23.51 122.76 26.36L122.74 26.34L122.72 26.32Q121.64 29.15 121.07 30.55ZM128.91 33.03L128.99 33.11L129.00 33.12Q126.65 33.01 124.44 33.05L124.46 33.07L124.48 33.09Q122.19 33.08 119.90 33.27L119.95 33.32L119.89 33.26Q118.48 36.80 115.24 40.99L115.18 40.92L115.15 40.89Q112.55 41.49 111.18 41.98L111.17 41.97L111.22 42.03Q116.31 36.34 120.99 22.98L121.00 22.99L120.97 22.96Q122.23 19.54 123.61 16.30L123.69 16.39L123.70 16.40Q123.97 16.37 124.32 16.37L124.26 16.31L125.10 16.43L125.12 16.44Q125.78 17.72 130.62 29.37L130.67 29.42L130.53 29.29Q133.85 37.17 137.84 41.31L137.96 41.43L137.92 41.39Q137.38 41.24 133.50 40.36L133.55 40.41L133.62 40.48Q130.96 37.24 128.98 33.10ZM133.40 40.68L133.48 40.76L133.94 40.72L133.92 40.70Q134.22 40.78 134.53 40.89L134.49 40.85L134.65 41.01Q134.98 41.39 136.81 43.40L136.83 43.42L136.78 43.38Q140.41 44.26 142.81 45.29L142.84 45.32L142.70 45.18Q137.38 40.82 133.38 32.82L133.32 32.75L133.27 32.71Q131.61 29.37 130.16 25.41L130.30 25.55L127.51 18.00L127.50 17.99Q127.25 18.09 127.02 18.09L127.06 18.12L126.47 18.07L126.46 18.06Q126.05 17.34 125.33 15.97L125.40 16.05L125.27 15.91Q124.88 16.06 124.43 16.02L124.43 16.03L124.34 15.93Q124.02 16.03 123.49 16.03L123.32 15.87L123.34 15.89Q121.95 19.82 118.06 29.99L118.16 30.08L118.13 30.06Q114.94 37.95 110.30 42.74L110.43 42.88L110.42 42.86Q111.43 42.42 113.45 41.82L113.36 41.73L113.42 41.79Q112.62 42.63 111.06 44.42L111.15 44.51L110.99 44.35Q112.77 43.76 116.69 43.00L116.76 43.08L116.65 42.97Q120.07 38.62 121.63 35.38L121.73 35.48L121.77 35.52Q123.50 35.38 125.82 35.42L125.81 35.42L125.80 35.40Q128.44 35.34 129.81 35.41L129.83 35.44L129.80 35.41Q131.16 37.87 133.52 40.80ZM125.71 26.03L125.66 25.97L125.77 26.08Q126.59 28.12 127.35 30.22L127.40 30.26L124.03 30.20L124.02 30.20Q124.70 28.86 125.76 26.08Z"/><path fill="#333" d="M101.92 28.55L102.00 28.63L101.93 28.57Q99.22 28.67 98.45 30.91L98.39 30.85L98.37 30.83Q98.22 31.63 98.11 32.28L98.00 32.17L98.11 32.28Q100.58 32.35 102.21 32.35L102.22 32.36L102.24 32.38Q103.94 32.44 106.53 32.32L106.52 32.31L106.62 32.42Q106.39 30.58 104.98 29.52L104.97 29.51L105.12 29.66Q103.82 28.67 102.03 28.67ZM102.11 41.23L102.12 41.24L102.06 41.18Q97.88 41.22 96.58 39.81L96.46 39.69L96.58 39.81Q95.56 38.30 95.41 35.03L95.53 35.14L95.38 35.00Q95.51 34.89 95.43 33.52L95.37 33.46L95.42 33.51Q95.15 31.07 95.15 30.35L95.18 30.38L95.17 30.37Q95.24 28.58 95.97 27.47L95.84 27.35L95.99 27.50Q97.25 25.94 100.22 25.94L100.22 25.94L101.87 26.03L101.87 26.03Q103.84 25.95 105.37 26.25L105.47 26.35L105.43 26.31Q107.46 26.75 108.45 27.97L108.46 27.98L108.47 27.99Q109.05 29.02 109.13 31.12L109.21 31.20L109.24 31.23Q109.11 32.24 109.15 34.41L109.25 34.51L109.26 34.52Q106.30 34.45 103.52 34.45L103.61 34.54L97.92 34.45L97.90 34.44Q98.10 38.89 102.17 38.67L102.25 38.74L102.17 38.66Q106.02 38.56 107.24 36.73L107.29 36.78L107.28 36.76Q108.17 37.32 109.77 38.50L109.76 38.49L109.70 38.43Q108.31 40.81 104.16 41.07L104.06 40.97L104.23 41.14Q103.35 41.02 101.98 41.10ZM104.34 43.50L104.33 43.49L104.40 43.56Q105.38 43.40 106.60 43.47L106.62 43.49L106.61 43.48Q111.64 43.72 112.55 40.94L112.57 40.95L112.63 41.02Q111.03 39.80 109.93 39.04L109.90 39.00L109.92 39.02Q109.93 38.46 110.12 38.24L110.13 38.25L110.27 38.39Q109.57 37.96 108.20 37.01L108.10 36.91L108.16 36.97Q109.23 37.00 111.28 37.31L111.18 37.20L111.18 37.20Q111.14 35.99 111.07 35.30L110.91 35.15L110.91 33.35L110.93 33.37Q110.79 31.03 110.15 29.55L110.15 29.55L110.08 29.48Q109.73 29.05 109.16 28.44L109.30 28.59L109.13 28.42Q109.13 28.27 108.90 27.69L108.93 27.72L108.83 27.62Q106.83 25.47 101.77 25.47L101.80 25.51L100.11 25.49L100.12 25.49Q96.97 25.58 95.52 27.07L95.49 27.04L95.58 27.12Q94.90 28.24 94.94 30.29L94.91 30.27L94.91 30.26Q94.88 31.15 95.00 33.39L94.97 33.37L95.06 33.46Q95.05 34.97 95.16 37.03L95.33 37.19L95.17 37.04Q95.44 39.28 96.32 40.35L96.43 40.46L96.43 40.46Q96.53 40.56 96.72 40.67L96.82 40.77L97.04 41.34L97.13 41.43Q97.79 43.15 104.38 43.54ZM102.24 38.31L102.35 38.42L102.28 38.35Q101.04 38.37 100.13 37.91L100.17 37.95L100.11 37.90Q100.03 37.47 99.84 36.79L100.00 36.95L99.83 36.78Q101.61 36.77 103.21 36.77L103.16 36.72L103.12 36.68Q104.81 36.69 106.48 36.81L106.58 36.91L106.64 36.97Q105.34 38.30 102.34 38.41ZM103.81 30.90L103.91 31.00L103.80 30.89Q104.44 30.93 105.78 31.31L105.88 31.41L106.08 31.80L106.00 31.91L106.11 32.02Q104.76 32.15 103.84 32.11L103.71 31.98L103.86 32.13Q101.48 32.00 101.45 32.00L101.52 32.07L101.54 32.09Q102.12 31.00 103.80 30.89Z"/><path fill="#333" d="M34.60 19.16L34.68 19.24L34.56 19.12Q35.77 23.68 35.92 26.88L35.90 26.86L35.91 26.87Q36.36 26.86 40.74 26.97L40.70 26.93L40.81 27.04Q43.24 26.96 43.62 23.50L43.74 23.61L43.71 23.59Q43.97 21.90 43.05 20.99L42.92 20.85L42.92 20.86Q41.64 19.96 39.66 19.80L39.77 19.92L39.73 19.88Q36.46 19.61 34.59 19.15ZM36.03 28.81L36.06 28.84L36.04 28.82Q36.16 34.77 34.37 40.71L34.48 40.81L34.44 40.77Q33.07 40.97 30.48 42.00L30.51 42.03L30.51 42.02Q33.47 35.65 33.12 28.19L33.11 28.18L33.08 28.14Q32.73 20.76 29.42 14.25L29.34 14.17L29.53 14.36Q34.31 17.08 41.28 17.08L41.19 17.00L41.22 17.03Q46.91 17.08 47.18 20.62L47.21 20.65L47.19 20.64Q47.21 21.19 47.13 21.80L47.18 21.84L47.08 22.96L47.11 22.99Q46.22 26.86 44.09 28.58L44.09 28.57L44.14 28.63Q43.43 29.40 42.40 29.40L42.32 29.32L39.80 29.39L39.64 29.22Q45.34 36.56 49.87 41.13L49.84 41.10L49.88 41.14Q47.72 40.43 44.79 40.09L44.73 40.02L44.77 40.07Q40.98 36.09 36.07 28.86ZM44.52 40.31L44.69 40.48L44.81 40.30L46.06 41.55L46.12 41.61Q46.65 42.10 47.30 42.71L47.29 42.70L47.38 42.79Q50.85 43.33 54.43 45.20L54.52 45.28L54.45 45.22Q47.54 38.50 42.14 31.57L42.08 31.51L43.93 31.61L43.90 31.58Q46.94 31.54 48.28 27.01L48.40 27.13L48.36 27.09Q49.05 24.89 49.05 22.18L49.06 22.20L49.09 22.23Q48.94 19.80 47.23 19.15L47.35 19.27L47.21 19.13Q47.25 18.91 46.68 18.22L46.52 18.06L46.59 18.13Q44.92 16.69 41.27 16.61L41.31 16.66L41.23 16.57Q33.40 16.47 28.71 13.46L28.65 13.40L28.73 13.48Q32.35 20.19 32.70 27.88L32.79 27.97L32.88 28.06Q33.16 35.96 30.04 42.81L29.91 42.68L30.09 42.86Q31.36 42.30 32.16 42.00L32.15 41.99L31.06 44.17L31.10 44.22Q33.80 43.15 36.47 42.65L36.48 42.67L36.51 42.70Q37.66 37.45 37.85 32.23L37.85 32.24L38.00 32.39Q41.34 37.17 44.50 40.30ZM43.39 22.51L43.27 22.39L43.31 22.43Q43.35 22.70 43.35 23.04L43.30 22.99L43.30 23.56L43.28 23.54Q43.45 24.81 42.77 25.77L42.72 25.72L42.63 25.63Q42.17 26.54 41.26 26.74L41.22 26.69L41.14 26.61Q41.01 26.75 39.41 26.79L39.28 26.65L39.33 26.71Q38.70 26.69 37.86 26.57L37.94 26.65L37.91 26.62Q37.91 25.21 37.56 22.16L37.57 22.16L37.38 21.98Q38.81 22.19 39.50 22.19L39.49 22.19L39.59 22.29Q41.41 22.28 43.35 22.47Z"/><path fill="#222" d="M19.38 18.42L19.39 18.43L19.36 18.40Q18.68 18.83 18.53 19.63L18.47 19.57L18.59 24.82L18.60 24.84Q19.58 24.67 21.79 24.41L21.87 24.49L21.80 24.42Q21.87 24.95 21.84 25.79L21.84 25.79L21.86 25.82Q21.73 26.48 21.73 26.94L21.81 27.02L20.24 27.12L20.24 27.12Q19.36 27.12 18.49 27.12L18.53 27.17L18.47 27.11Q18.55 31.37 18.47 39.75L18.47 39.75L18.50 39.77Q16.16 39.72 14.68 40.41L14.83 40.56L14.75 40.48Q15.89 34.38 15.77 27.15L15.67 27.05L15.78 27.15Q15.01 27.00 13.72 26.73L13.85 26.86L13.87 26.88Q13.79 25.81 13.60 23.87L13.55 23.82L13.66 23.93Q14.70 24.36 15.65 24.55L15.68 24.58L15.56 24.46Q15.56 23.85 15.25 21.38L15.36 21.49L15.28 21.41Q14.98 19.27 14.98 18.32L15.11 18.46L15.16 18.50Q15.08 16.75 16.49 16.18L16.49 16.18L16.55 16.24Q17.29 15.79 22.12 14.96L22.19 15.02L22.06 14.90Q22.89 14.77 23.73 14.66L23.77 14.70L23.73 14.66Q23.63 15.55 23.48 16.43L23.42 16.37L23.01 17.82L23.15 17.96Q22.54 17.85 22.04 17.96L21.89 17.81L21.97 17.89Q21.23 17.76 19.33 18.37ZM24.79 19.53L24.93 19.67L24.77 19.51Q25.12 17.31 25.73 14.76L25.90 14.93L25.82 14.84Q25.21 15.19 23.92 15.80L23.95 15.83L24.26 14.05L24.38 14.17Q22.98 14.18 20.50 14.71L20.60 14.80L20.53 14.74Q19.50 14.96 16.30 15.87L16.27 15.85L16.15 15.73Q14.67 16.22 14.67 18.09L14.57 17.99L14.59 18.00Q14.74 18.46 14.81 18.80L14.78 18.77L14.81 18.80Q14.96 20.05 15.07 21.38L15.11 21.42L15.30 24.08L15.26 24.05Q13.79 23.57 13.15 23.11L13.25 23.22L13.29 23.26Q13.27 24.08 13.31 25.11L13.49 25.29L13.57 27.23L13.60 27.26Q14.17 27.30 14.97 27.38L15.11 27.51L15.05 29.54L15.49 29.60L15.45 29.57Q15.40 35.76 14.41 41.20L14.39 41.19L14.30 41.10Q15.28 40.59 16.46 40.32L16.53 40.39L16.27 42.38L16.26 42.37Q17.51 42.09 18.80 42.06L18.78 42.03L18.90 42.15Q19.98 41.98 21.24 42.24L21.22 42.23L21.34 42.35Q20.52 37.38 20.52 29.42L20.50 29.40L20.43 29.33Q21.63 29.43 23.73 29.51L23.72 29.50L23.61 27.53L23.60 27.52Q23.63 26.59 23.66 25.64L23.79 25.77L23.63 25.60Q23.14 25.69 22.08 25.95L22.25 26.12L22.23 26.10Q22.21 25.40 22.32 24.07L22.26 24.00L22.17 23.92Q21.33 24.14 20.53 24.22L20.72 24.40L20.61 24.30Q20.65 22.93 20.76 21.52L20.78 21.53L20.73 21.49Q20.93 20.89 21.47 20.55L21.47 20.55L21.37 20.45Q22.29 19.73 23.11 19.66L23.17 19.72L23.13 19.68Q24.02 19.68 24.86 19.60Z"/><path d="M6 45 C87 15,71 33,143 9" stroke="#444" fill="none"/><path fill="#222" d="M83.98 20.23L83.90 20.14L83.79 20.04Q79.54 20.09 75.85 19.10L75.90 19.15L75.93 19.17Q77.34 23.63 77.53 28.46L77.59 28.53L77.56 28.49Q77.77 33.31 76.55 37.92L76.49 37.86L76.62 37.99Q79.36 37.30 82.86 37.15L82.79 37.07L82.80 37.08Q86.76 36.93 88.55 34.50L88.64 34.59L88.55 34.50Q90.19 32.56 90.38 28.44L90.21 28.28L90.23 28.30Q90.33 26.57 89.87 24.86L89.82 24.81L89.83 24.82Q88.53 20.05 83.81 20.05ZM71.96 42.12L71.97 42.13L71.96 42.12Q74.94 36.53 74.94 29.83L74.91 29.81L74.87 29.76Q74.78 21.15 70.48 14.14L70.60 14.26L70.52 14.19Q75.76 16.84 84.02 17.03L84.17 17.17L84.01 17.02Q92.97 17.30 93.32 24.46L93.33 24.47L93.37 24.51Q93.33 27.06 93.29 28.50L93.34 28.56L93.40 28.62Q93.32 33.29 92.48 35.46L92.45 35.43L92.39 35.37Q92.02 36.53 91.26 37.36L91.24 37.34L91.24 37.34Q89.99 38.99 87.37 39.48L87.36 39.48L87.21 39.33Q85.62 39.60 82.61 39.83L82.73 39.95L82.67 39.88Q76.53 40.34 71.93 42.09ZM89.93 42.04L89.87 41.99L89.86 41.97Q92.65 41.68 94.29 40.20L94.25 40.16L94.22 40.13Q95.54 38.48 95.50 35.74L95.51 35.75L95.34 35.58Q95.44 34.31 95.29 30.81L95.37 30.89L95.01 26.34L94.95 26.28Q94.66 23.90 93.71 21.80L93.75 21.84L93.69 21.79Q93.26 20.93 92.57 20.29L92.65 20.36L92.62 20.18L92.52 20.09Q90.90 17.20 86.48 16.82L86.51 16.85L86.56 16.90Q83.86 16.75 76.85 16.02L76.81 15.99L76.78 15.95Q73.48 15.47 69.79 13.45L69.78 13.45L69.71 13.38Q74.63 20.85 74.63 29.61L74.62 29.60L74.54 29.52Q74.56 36.53 71.21 42.70L71.28 42.78L71.24 42.73Q71.97 42.51 73.30 42.01L73.31 42.03L73.23 41.94Q73.05 42.94 72.17 44.43L72.00 44.25L72.17 44.42Q75.05 43.20 78.40 42.70L78.50 42.80L78.46 42.76Q80.57 42.46 84.22 42.35L84.28 42.41L84.09 42.22Q88.09 42.22 89.92 42.03ZM89.98 28.43L90.00 28.45L89.88 28.33Q89.61 36.44 82.91 36.82L82.92 36.82L82.96 36.86Q80.91 36.87 78.85 37.14L78.83 37.11L78.89 37.17Q79.55 33.26 79.55 29.61L79.49 29.55L79.62 29.68Q79.56 25.93 78.83 22.08L78.80 22.05L78.88 22.13Q81.21 22.55 85.89 22.55L85.86 22.52L85.83 22.49Q87.14 22.28 88.78 23.23L88.74 23.19L88.84 23.29Q90.05 25.49 89.89 28.34Z"/><path d="M12 38 C58 47,79 34,148 36" stroke="#777" fill="none"/></svg>