<svg xmlns="http://www.w3.org/2000/svg" width="150" height="50" viewBox="0,0,150,50"><path fill="#444" d="M38.38 14.37L38.34 14.33L38.38 14.37Q42.06 16.79 46.82 17.02L46.85 17.05L46.81 17.01Q51.57 17.32 55.84 15.57L55.81 15.54L55.77 15.51Q55.53 16.06 54.77 18.84L54.85 18.93L54.76 18.83Q52.09 19.94 49.12 20.09L49.14 20.10L49.14 20.10Q46.11 20.20 43.22 19.47L43.23 19.49L43.21 19.46Q43.91 23.10 44.10 26.75L43.96 26.62L44.16 26.81Q46.14 27.00 47.74 26.96L47.65 26.88L47.76 26.98Q48.86 26.87 51.26 26.75L51.24 26.74L51.25 26.75Q51.24 27.42 51.24 28.10L51.30 28.16L51.16 29.36L51.30 29.50Q48.87 29.47 44.08 29.55L44.02 29.49L44.00 29.47Q44.01 33.59 43.44 37.59L43.58 37.73L43.41 37.56Q46.14 37.02 48.89 37.13L48.83 37.08L48.87 37.11Q51.66 37.28 54.25 38.12L54.19 38.06L54.17 38.04Q54.15 38.75 54.42 39.51L54.40 39.49L54.95 41.10L54.95 41.11Q51.71 39.77 48.29 39.77L48.24 39.73L48.26 39.74Q43.38 39.74 39.12 41.99L39.29 42.15L39.21 42.08Q41.45 35.18 41.18 28.06L41.20 28.08L41.23 28.10Q40.97 20.95 38.30 14.29ZM38.61 42.69L38.78 42.87L38.65 42.73Q39.98 42.08 40.74 41.74L40.64 41.64L40.81 41.81Q40.60 42.55 40.03 44.07L39.98 44.03L39.86 43.90Q44.50 42.04 49.56 42.30L49.49 42.23L49.52 42.26Q54.73 42.60 58.73 45.30L58.68 45.25L58.74 45.32Q57.52 42.72 56.83 40.78L56.89 40.84L56.85 40.80Q55.94 40.27 54.95 39.92L54.78 39.76L54.93 39.90Q54.48 38.46 54.33 37.66L54.27 37.61L54.43 37.76Q51.28 36.71 48.12 36.71L48.04 36.63L48.17 36.76Q46.95 36.69 45.81 36.80L45.78 36.77L45.73 36.72Q45.86 35.48 45.90 34.26L46.00 34.36L45.97 31.74L46.08 31.86Q47.78 31.65 49.57 31.69L49.63 31.75L49.72 31.84Q51.52 31.85 53.31 32.01L53.31 32.01L53.27 31.96Q53.13 30.95 53.13 30.00L53.14 30.01L53.12 28.09L52.38 28.22L52.46 28.30Q52.01 28.34 51.55 28.34L51.43 28.22L51.54 28.33Q51.45 27.56 51.60 26.26L51.61 26.27L51.63 26.29Q50.14 26.63 48.96 26.67L48.81 26.52L48.90 26.61Q47.91 26.57 46.09 26.49L46.17 26.57L46.06 26.47Q45.96 25.04 45.77 22.22L45.83 22.28L45.79 22.24Q46.93 22.47 47.92 22.47L47.93 22.48L47.95 22.49Q52.62 22.44 56.31 20.54L56.21 20.43L56.32 20.54Q56.78 18.07 57.65 15.87L57.77 15.98L57.67 15.88Q56.37 16.76 55.54 17.10L55.58 17.14L55.57 17.13Q55.77 16.27 56.23 14.71L56.25 14.73L56.30 14.77Q51.67 16.92 46.80 16.62L46.70 16.53L46.72 16.55Q41.44 16.25 37.60 13.40L37.63 13.43L37.66 13.46Q40.48 20.35 40.78 27.96L40.88 28.06L40.95 28.13Q41.28 36.07 38.76 42.85Z"/><path d="M18 45 C68 28,64 7,147 46" stroke="#333" fill="none"/><path fill="#333" d="M120.48 40.11L120.55 40.18L118.20 33.38L118.22 33.40Q113.74 20.70 107.80 14.30L107.74 14.24L107.90 14.40Q109.91 15.46 112.49 16.06L112.49 16.06L112.48 16.05Q117.55 22.26 121.89 35.01L121.83 34.95L121.87 35.00Q124.96 26.93 125.64 25.33L125.56 25.25L125.67 25.36Q128.12 19.81 130.94 16.50L130.84 16.40L130.80 16.37Q133.01 16.13 135.63 15.26L135.56 15.18L135.61 15.23Q130.93 19.73 127.89 26.96L127.85 26.93L127.94 27.01Q126.45 30.59 122.76 40.11L122.76 40.12L122.91 40.26Q122.17 40.09 121.60 40.05L121.77 40.22L121.76 40.21Q121.19 40.21 120.62 40.25ZM125.50 42.54L125.62 42.67L125.54 42.58Q128.41 32.67 129.97 28.63L129.86 28.51L129.89 28.54Q132.89 20.86 137.31 15.98L137.28 15.95L137.32 15.99Q136.27 16.35 134.17 17.07L134.19 17.09L135.46 15.89L135.39 15.82Q135.85 15.02 136.46 14.37L136.62 14.53L136.60 14.51Q133.65 15.37 130.64 15.94L130.70 16.00L130.76 16.06Q126.38 21.38 122.49 32.84L122.43 32.78L122.43 32.78Q118.76 22.63 115.56 18.26L115.68 18.38L115.68 18.37Q115.27 18.27 114.39 18.12L114.32 18.04L114.36 18.09Q114.19 17.76 112.59 15.70L112.44 15.55L112.58 15.70Q109.62 14.98 106.92 13.57L106.87 13.53L106.79 13.45Q113.52 20.63 117.90 33.43L117.88 33.40L117.82 33.35Q119.12 37.08 120.30 40.66L120.32 40.68L120.30 40.66Q120.55 40.60 121.38 40.49L121.44 40.54L121.37 40.47Q121.89 41.34 122.58 42.67L122.55 42.65L122.51 42.61Q123.38 42.56 124.10 42.63L124.15 42.68L124.08 42.61Q124.90 42.71 125.67 42.71Z"/><path d="M16 32 C62 39,88 2,133 6" stroke="#222" fill="none"/><path fill="#222" d="M65.34 49.65L65.29 49.60L65.26 49.57Q68.28 45.82 71.18 39.61L71.07 39.51L71.15 39.58Q68.06 33.07 61.97 25.00L61.88 24.91L61.96 24.99Q63.82 26.09 66.60 26.73L66.66 26.79L66.52 26.65Q70.04 31.32 72.48 36.54L72.46 36.52L72.52 36.57Q74.63 31.22 77.71 26.81L77.78 26.88L77.85 26.94Q80.10 26.65 82.20 25.85L82.06 25.71L82.07 25.72Q78.77 29.65 75.30 37.08L75.24 37.01L72.45 43.06L72.30 42.91Q70.89 46.07 69.14 48.69L69.19 48.75L69.24 48.79Q66.78 49.11 65.33 49.64ZM71.50 50.97L71.52 50.99L71.56 51.04Q73.25 48.12 74.70 44.84L74.74 44.88L77.33 38.42L77.42 38.51Q80.88 30.43 84.19 26.43L84.30 26.54L84.23 26.47Q82.78 27.04 80.87 27.72L80.99 27.84L82.03 26.44L81.90 26.31Q82.54 25.70 83.15 25.01L83.08 24.94L83.19 25.06Q80.40 25.99 77.54 26.45L77.71 26.62L77.69 26.60Q74.82 30.38 72.87 34.84L72.85 34.81L72.88 34.85Q71.24 31.53 69.45 28.71L69.53 28.79L69.43 28.69Q69.25 28.70 68.89 28.66L68.95 28.73L68.90 28.67Q68.68 28.78 68.49 28.78L68.47 28.76L68.35 28.64Q67.59 27.38 66.64 26.24L66.76 26.36L66.72 26.32Q63.51 25.62 60.76 23.91L60.84 23.98L60.73 23.88Q67.09 31.99 70.78 39.60L70.67 39.48L70.73 39.54Q68.57 44.62 64.50 50.26L64.52 50.27L64.44 50.19Q65.33 49.98 66.13 49.83L66.10 49.80L67.81 49.54L67.66 49.39Q67.12 50.17 65.94 51.81L65.85 51.73L66.01 51.88Q68.17 51.15 71.44 50.92Z"/><path fill="#222" d="M23.40 40.14L23.39 40.13L21.19 40.22L21.30 40.33Q20.82 40.30 19.85 40.36L19.91 40.42L19.87 40.38Q18.90 40.44 18.40 40.44L18.34 40.37L18.46 40.49Q16.82 40.49 15.79 39.65L15.78 39.64L15.78 39.64Q16.47 38.43 18.11 36.30L18.13 36.32L18.13 36.32Q19.37 37.87 21.58 37.64L21.61 37.67L21.59 37.64Q22.54 37.57 23.19 36.92L23.17 36.91L23.15 36.88Q23.84 36.28 23.72 35.40L23.80 35.48L23.76 35.44Q23.60 30.78 23.67 26.21L23.59 26.13L23.61 26.15Q23.73 21.63 24.26 17.02L24.27 17.03L24.19 16.94Q26.25 16.88 28.38 15.85L28.34 15.80L28.25 15.72Q26.55 22.62 26.55 29.85L26.37 29.67L26.52 29.83Q26.41 33.25 26.86 36.75L26.99 36.88L26.90 36.79Q27.06 37.22 27.06 37.56L27.08 37.57L26.89 37.39Q27.01 38.08 26.78 38.61L26.80 38.63L26.68 38.51Q26.11 39.77 23.29 40.03ZM28.38 43.03L28.27 42.92L28.75 43.05L28.86 42.75L29.28 42.78L29.24 42.74Q29.48 42.42 29.56 42.30L29.67 42.42L29.53 42.28Q29.67 41.05 29.41 40.06L29.46 40.11L29.59 40.24Q28.14 34.34 28.41 27.98L28.39 27.96L28.43 28.00Q28.63 21.84 30.42 15.94L30.36 15.88L30.38 15.90Q29.65 16.70 28.39 17.42L28.23 17.26L28.32 17.35Q28.57 16.65 28.99 15.13L29.02 15.16L28.92 15.05Q26.47 16.45 23.80 16.75L23.70 16.65L23.69 16.64Q23.49 21.20 23.42 26.15L23.28 26.01L23.29 26.02Q23.27 31.98 23.35 35.40L23.40 35.46L23.42 35.48Q23.44 37.21 21.69 37.36L21.72 37.39L21.71 37.39Q19.88 37.38 18.20 35.75L18.26 35.80L18.31 35.85Q16.20 38.31 15.25 39.87L15.20 39.82L15.17 39.79Q15.90 40.52 16.93 40.75L16.86 40.69L16.95 40.77Q16.80 40.85 16.54 41.08L16.48 41.03L16.54 41.08Q18.04 42.09 20.02 42.36L20.01 42.34L19.96 42.30Q20.42 42.42 23.72 42.72L23.74 42.75L23.58 42.59Q27.05 43.07 28.42 43.07Z"/><path fill="#333" d="M105.93 34.71L105.84 34.63L105.91 34.70Q105.93 38.30 102.77 39.59L102.77 39.59L102.86 39.68Q100.79 40.31 96.37 40.47L96.36 40.45L96.47 40.56Q91.65 40.65 89.40 39.47L89.49 39.56L89.33 39.40Q87.54 38.14 87.69 34.79L87.65 34.75L87.73 34.83Q87.71 34.17 87.90 32.19L88.02 32.30L87.97 32.25Q88.08 30.65 88.08 29.66L88.05 29.63L87.99 29.57Q88.08 21.67 83.90 14.25L83.98 14.33L83.94 14.29Q85.07 14.92 88.04 15.99L87.91 15.86L88.01 15.96Q90.90 22.69 90.90 30.08L90.93 30.11L90.79 29.97Q90.86 30.65 90.76 31.83L90.70 31.76L90.73 31.80Q90.75 33.09 90.75 33.70L90.63 33.58L90.77 33.72Q90.59 35.83 92.15 36.82L92.22 36.89L92.34 37.00Q93.96 37.79 96.93 37.79L96.93 37.78L96.92 37.78Q99.45 37.68 101.09 36.50L101.02 36.44L101.20 36.61Q103.03 35.25 102.88 32.74L102.84 32.70L102.90 32.75Q102.80 31.36 102.80 30.03L102.62 29.85L102.77 30.00Q102.68 22.87 105.08 16.36L105.16 16.43L107.30 15.84L107.24 15.78Q108.31 15.59 109.42 15.14L109.31 15.03L109.30 15.02Q105.70 22.27 105.70 29.85L105.71 29.86L105.71 29.86Q105.74 30.72 105.87 32.36L105.83 32.32L105.85 32.34Q105.94 33.93 105.94 34.73ZM108.10 35.64L108.07 35.60L107.97 35.50Q107.21 30.67 107.93 25.57L107.85 25.48L107.96 25.59Q108.70 20.39 111.09 16.01L111.00 15.91L111.09 16.01Q110.48 16.31 109.04 16.96L108.96 16.89L108.89 16.82Q109.37 16.08 110.17 14.52L110.07 14.42L110.08 14.43Q106.74 15.77 104.84 16.11L104.81 16.09L104.77 16.04Q102.49 22.63 102.49 29.91L102.32 29.74L102.37 29.79Q102.42 31.21 102.49 32.61L102.59 32.71L102.50 32.63Q102.56 34.93 100.77 36.15L100.81 36.18L100.88 36.26Q99.43 37.35 96.91 37.39L96.84 37.31L96.78 37.26Q94.03 37.32 92.58 36.56L92.60 36.58L92.62 36.60Q92.61 36.17 92.53 35.71L92.50 35.68L92.43 35.61Q92.36 35.08 92.48 34.59L92.55 34.66L92.61 34.73Q92.72 32.29 92.72 29.96L92.70 29.94L92.77 30.01Q92.75 24.17 91.23 18.27L91.25 18.28L91.29 18.33Q90.47 18.11 89.06 17.77L89.06 17.77L89.08 17.80Q88.70 16.50 88.25 15.59L88.18 15.52L88.25 15.59Q85.49 14.77 83.09 13.40L83.19 13.50L83.20 13.51Q87.67 20.96 87.67 29.67L87.75 29.75L87.69 29.69Q87.69 31.32 87.53 33.04L87.65 33.15L87.70 33.20Q87.35 35.47 87.42 36.65L87.44 36.67L87.46 36.69Q87.51 38.53 88.76 39.67L88.94 39.85L88.94 39.84Q89.82 42.21 94.46 42.59L94.53 42.65L94.53 42.66Q96.60 42.79 98.73 42.87L98.72 42.85L98.70 42.83Q104.16 43.11 106.94 42.16L106.87 42.09L106.88 42.10Q108.55 41.30 108.55 39.24L108.43 39.13L108.38 39.07Q108.52 38.07 108.07 35.60Z"/></svg>