<svg xmlns="http://www.w3.org/2000/svg" width="150" height="50" viewBox="0,0,150,50"><path d="M12 45 C96 11,54 31,144 35" stroke="#333" fill="none"/><path fill="#444" d="M90.21 29.57L90.10 29.46L90.14 29.50Q88.86 28.64 88.21 28.68L88.26 28.72L88.23 28.69Q86.89 28.80 85.85 29.81L85.85 29.81L85.86 29.83Q84.85 30.88 84.97 32.25L84.93 32.21L85.04 32.32Q85.32 36.63 84.44 41.16L84.44 41.16L84.48 41.20Q82.16 41.54 81.06 42.08L81.11 42.14L81.13 42.15Q82.58 37.92 82.35 33.47L82.32 33.44L82.35 33.47Q82.20 29.05 80.48 24.98L80.45 24.95L80.44 24.93Q81.60 25.64 83.88 26.29L83.74 26.15L84.36 28.90L84.28 28.82Q85.11 26.07 89.37 26.07L89.31 26.00L89.39 26.09Q89.76 26.00 90.07 26.00L90.11 26.04L90.08 26.01Q91.31 25.95 92.57 26.64L92.53 26.60L92.58 26.65Q91.27 28.00 90.13 29.49ZM91.79 31.53L91.85 31.44L91.93 31.51Q92.75 30.28 94.43 27.85L94.33 27.75L94.40 27.83Q94.01 27.54 92.49 27.28L92.34 27.13L92.33 27.12Q92.68 26.83 93.14 26.22L93.25 26.32L93.24 26.32Q91.38 25.45 89.44 25.64L89.32 25.52L89.32 25.52Q87.51 25.84 86.79 26.11L86.80 26.12L86.64 25.96Q85.30 26.45 84.50 27.55L84.46 27.52L84.37 26.77L84.03 25.78L84.07 25.83Q81.64 25.38 79.66 24.04L79.76 24.15L79.73 24.12Q81.97 28.60 82.20 33.47L82.04 33.32L82.03 33.31Q82.35 38.30 80.59 42.83L80.68 42.91L80.64 42.88Q81.65 42.33 82.52 42.02L82.47 41.97L82.56 42.06Q82.27 43.13 81.77 44.20L81.76 44.19L81.75 44.18Q84.59 43.32 86.72 43.21L86.80 43.29L86.87 38.65L86.88 38.65Q87.05 36.46 87.05 34.22L87.11 34.28L87.12 34.28Q87.12 33.10 88.03 32.13L88.01 32.11L87.89 31.99Q88.92 31.13 90.06 31.06L89.95 30.95L90.10 31.10Q90.71 30.94 91.43 31.63L91.34 31.53L91.65 31.39ZM86.68 29.61L86.74 29.61L86.68 29.66L86.76 29.70Z"/><path fill="#222" d="M109.77 49.68L109.77 49.68L109.76 49.67Q112.62 45.76 115.52 39.55L115.45 39.48L115.48 39.51Q112.37 32.98 106.28 24.91L106.30 24.93L106.33 24.96Q108.26 26.13 111.04 26.78L110.96 26.70L110.98 26.71Q114.43 31.31 116.86 36.52L116.89 36.55L116.88 36.53Q119.19 31.38 122.27 26.97L122.19 26.89L122.24 26.94Q124.41 26.56 126.50 25.76L126.56 25.81L126.55 25.81Q123.01 29.49 119.54 36.92L119.67 37.04L116.89 43.09L116.73 42.93Q115.32 46.09 113.57 48.72L113.69 48.85L113.53 48.69Q111.18 49.11 109.74 49.65ZM115.97 51.05L115.81 50.89L115.95 51.02Q117.59 48.06 119.03 44.78L119.07 44.82L121.78 38.47L121.83 38.51Q125.30 30.45 128.61 26.45L128.61 26.46L128.54 26.38Q127.24 27.10 125.33 27.79L125.30 27.75L126.39 26.40L126.42 26.44Q126.85 25.60 127.45 24.92L127.51 24.97L127.62 25.09Q124.87 26.07 122.02 26.53L122.11 26.61L122.04 26.55Q119.29 30.45 117.34 34.91L117.24 34.80L117.25 34.82Q115.75 31.64 113.96 28.82L113.92 28.78L113.95 28.81Q113.63 28.68 113.27 28.64L113.36 28.73L113.43 28.80Q113.02 28.72 112.83 28.72L112.84 28.73L112.77 28.65Q111.96 27.36 111.01 26.21L111.00 26.21L111.15 26.35Q107.92 25.64 105.18 23.93L105.15 23.89L105.10 23.84Q111.36 31.86 115.05 39.47L115.18 39.60L115.04 39.45Q112.88 44.53 108.80 50.16L108.83 50.19L108.81 50.17Q109.79 50.04 110.59 49.89L110.45 49.75L112.06 49.38L112.18 49.51Q111.52 50.17 110.34 51.81L110.28 51.75L110.26 51.73Q112.57 51.15 115.85 50.92Z"/><path d="M16 7 C56 13,76 2,130 10" stroke="#555" fill="none"/><path fill="#333" d="M56.34 29.24L56.31 29.21L56.24 29.14Q54.44 29.20 53.22 30.54L53.26 30.58L53.16 30.47Q51.90 31.77 51.75 33.67L51.74 33.67L51.93 33.85Q51.70 35.94 52.92 36.95L52.90 36.93L52.91 36.94Q54.08 37.91 56.21 37.83L56.16 37.78L56.25 37.87Q58.57 37.72 59.53 36.77L59.42 36.66L59.48 36.72Q60.51 35.27 60.39 33.45L60.37 33.43L60.31 33.36Q60.23 31.53 59.15 30.33L59.23 30.41L59.30 30.48Q58.13 29.21 56.31 29.21ZM56.21 19.70L56.27 19.77L56.20 19.69Q54.77 19.56 53.44 20.06L53.54 20.16L53.57 20.19Q52.31 21.03 52.54 22.89L52.46 22.81L52.45 22.80Q52.93 26.51 56.28 26.51L56.22 26.45L56.23 26.46Q57.75 26.62 58.74 25.48L58.84 25.58L58.74 25.48Q59.87 24.47 59.91 22.91L59.87 22.87L59.89 22.90Q59.97 21.14 59.24 20.53L59.21 20.50L59.29 20.58Q57.58 19.71 56.29 19.79ZM56.03 40.35L55.95 40.27L52.91 40.27L52.87 40.24Q51.48 40.37 50.15 39.49L50.16 39.50L50.08 39.43Q48.70 38.27 48.85 35.42L48.93 35.50L48.94 35.51Q49.23 28.49 52.85 27.50L52.90 27.55L53.03 27.68Q50.68 26.70 49.35 21.33L49.32 21.31L49.38 21.37Q48.88 19.80 48.96 19.00L49.09 19.14L49.07 19.12Q49.39 17.00 53.08 16.96L53.03 16.90L53.10 16.98Q57.24 16.81 58.69 17.00L58.77 17.09L58.73 17.05Q62.66 17.66 63.11 19.68L63.01 19.57L62.96 19.53Q63.23 20.30 63.23 20.68L63.10 20.54L63.11 20.56Q63.18 21.30 62.99 21.91L62.93 21.86L62.92 21.85Q62.33 26.09 59.40 27.61L59.39 27.61L59.37 27.59Q62.99 28.50 63.48 33.79L63.34 33.65L63.46 33.77Q63.49 33.95 63.52 35.24L63.37 35.09L63.45 35.17Q63.51 37.90 61.91 38.96L61.98 39.03L61.94 38.99Q60.49 39.79 55.93 40.25ZM58.21 42.57L58.23 42.58L61.55 42.64L61.55 42.64Q63.29 42.74 64.81 42.02L64.90 42.10L64.76 41.96Q65.97 41.31 66.05 39.44L66.06 39.45L66.14 39.53Q66.05 38.30 65.67 36.36L65.70 36.39L65.70 36.39Q64.85 31.81 62.76 29.95L62.68 29.87L62.59 29.59L62.40 29.32L62.15 28.96L62.24 29.05Q63.86 27.66 64.77 23.51L64.72 23.46L64.67 23.41Q64.77 23.12 64.84 22.29L64.87 22.32L64.73 22.18Q64.92 21.60 64.84 20.99L64.88 21.03L64.86 21.01Q64.65 19.51 63.47 19.01L63.50 19.04L63.51 19.01L63.31 18.89L63.42 19.00Q63.12 18.24 61.94 17.44L61.91 17.41L61.91 17.38L61.92 17.38Q59.93 16.69 55.86 16.50L55.88 16.52L55.79 16.43Q54.39 16.48 53.02 16.59L52.87 16.45L53.02 16.59Q52.21 16.62 50.91 16.77L50.87 16.73L50.85 16.71Q48.91 17.09 48.68 18.72L48.65 18.69L48.75 18.79Q48.70 19.27 48.74 20.07L48.67 20.01L48.72 20.05Q48.83 20.59 49.40 22.95L49.31 22.86L49.26 22.81Q50.15 26.13 51.90 27.46L51.98 27.54L51.98 27.54L51.95 27.51Q49.14 28.77 48.60 33.95L48.67 34.02L48.58 33.93Q48.45 36.19 48.45 37.11L48.48 37.14L48.48 37.14Q48.52 38.90 49.70 39.81L49.73 39.84L49.82 39.93Q49.90 39.96 50.16 40.15L50.20 40.19L50.06 40.05Q51.05 42.30 58.17 42.53ZM57.87 31.49L57.93 31.55L58.02 31.64Q58.80 31.44 59.68 31.90L59.76 31.98L59.78 31.99Q60.18 33.01 60.14 33.54L60.00 33.40L60.01 33.41Q60.17 33.83 60.17 34.14L60.13 34.10L60.08 34.04Q60.05 36.37 57.76 37.21L57.78 37.23L57.72 37.17Q57.04 37.59 56.24 37.48L56.26 37.49L56.24 37.48Q55.14 37.60 54.00 37.14L53.88 37.02L53.99 37.13Q53.70 36.46 53.77 35.47L53.81 35.51L53.81 35.51Q53.94 33.88 55.14 32.66L55.08 32.61L55.14 32.66Q56.35 31.46 57.95 31.57ZM58.17 22.09L58.17 22.09L58.07 21.99Q58.92 21.92 59.45 22.07L59.46 22.08L59.41 22.83L59.45 22.87Q59.40 24.23 58.49 25.24L58.65 25.40L58.54 25.29Q57.64 26.32 56.27 26.13L56.33 26.18L56.34 26.20Q55.22 26.07 54.80 25.84L54.96 25.99L54.85 25.88Q54.84 25.64 54.72 24.96L54.79 25.03L54.83 25.06Q54.48 23.57 55.70 22.74L55.65 22.69L55.70 22.73Q56.65 21.93 58.06 21.97Z"/><path fill="#444" d="M29.20 32.23L19.85 22.13L19.82 22.09Q20.79 25.91 20.79 29.64L20.71 29.56L20.68 29.54Q20.64 35.47 18.58 41.03L18.62 41.07L18.65 41.10Q17.64 41.42 15.39 42.18L15.35 42.14L15.36 42.15Q18.15 36.34 18.15 29.64L18.08 29.56L18.23 29.71Q18.08 20.92 13.58 13.50L13.66 13.57L13.64 13.55Q14.12 13.76 14.80 14.18L14.86 14.24L14.77 14.14Q26.92 25.42 34.76 34.67L34.64 34.55L34.74 34.65Q34.41 32.19 34.41 29.75L34.33 29.67L34.38 29.72Q34.43 22.54 36.94 16.33L36.87 16.26L37.02 16.41Q39.28 15.82 40.88 15.13L40.94 15.19L40.88 15.13Q37.56 21.29 37.26 28.45L37.16 28.35L37.27 28.46Q37.00 35.84 39.96 42.01L39.84 41.88L39.97 42.01Q39.43 41.96 39.01 41.77L38.85 41.62L38.84 41.61Q34.28 37.65 29.06 32.09L29.05 32.09ZM42.52 45.13L42.60 45.21L42.58 45.20Q43.03 45.34 43.45 45.53L43.41 45.49L44.23 45.81L44.33 45.91Q39.11 38.91 39.11 29.55L39.06 29.49L39.03 29.46Q39.00 22.20 42.31 15.96L42.48 16.12L42.49 16.13Q41.78 16.30 40.37 16.91L40.27 16.81L40.43 16.96Q40.72 16.04 41.56 14.48L41.50 14.42L41.67 14.59Q39.07 15.34 36.63 15.91L36.64 15.92L36.62 15.90Q34.10 22.47 34.10 29.90L33.97 29.77L34.13 29.93Q34.09 31.75 34.28 33.73L34.15 33.61L34.19 33.64Q29.54 27.96 24.78 23.36L24.78 23.36L14.77 13.73L14.77 13.73Q14.13 13.36 12.91 12.79L12.97 12.84L12.97 12.84Q17.73 20.46 17.73 29.56L17.79 29.62L17.83 29.66Q17.87 36.81 14.79 42.83L14.76 42.81L14.80 42.84Q15.06 42.68 16.69 42.07L16.69 42.07L16.72 42.09Q16.30 42.78 15.46 44.27L15.51 44.32L15.60 44.40Q16.94 43.88 20.41 43.09L20.23 42.91L20.31 42.99Q22.68 36.90 22.68 29.71L22.72 29.75L22.58 29.61Q22.55 27.49 22.33 25.36L22.38 25.41L22.42 25.45Q33.83 38.20 42.43 45.05Z"/></svg>