<?xml version="1.0" encoding="UTF-8"?>
<svg width="20px" height="40px" viewBox="0 0 20 40" version="1.1" xmlns="http://www.w3.org/2000/svg" xmlns:xlink="http://www.w3.org/1999/xlink">
    <title>icon_shield 2</title>
    <g id="Latest" stroke="none" stroke-width="1" fill="none" fill-rule="evenodd">
        <g id="2_D_Powerwall_2" transform="translate(-1078.000000, -4378.000000)" fill="#FFFFFF" fill-rule="nonzero">
            <g id="Group-20" transform="translate(0.000000, 3600.000000)">
                <g id="badge_SM" transform="translate(560.000000, 778.000000)">
                    <g id="speed" transform="translate(518.000000, 0.000000)">
                        <g id="icon_shield-2">
                            <g id="icon_shield">
                                <path d="M18.4576644,11.1440848 L9.83729398,9.07074727 C9.62134491,8.97644071 9.37861111,8.97639444 9.16270602,9.07074727 L0.542335648,11.1440848 C0.214013889,11.2875344 0,11.6247798 0,11.9988132 L0,16.5764758 C0,22.879606 3.62095139,28.5494292 9.16758796,30.9313871 C9.38063426,31.022871 9.61932176,31.022871 9.83241204,30.9313871 C15.3789606,28.5494755 19,22.8796523 19,16.5764758 L19,11.9988132 C19,11.6247798 18.7860301,11.2875344 18.4576644,11.1440848 Z M17.2407407,16.5764758 C17.2407407,21.934782 14.25,26.8674593 9.5,29.0692722 C4.87693056,26.9262736 1.75925926,22.07999 1.75925926,16.5764758 L1.75925926,12.6166646 L9.5,10.9275407 L17.2407407,12.6166646 L17.2407407,16.5764758 Z M8.52774537,19.6959961 L12.3085694,15.718138 C12.6520648,15.3567375 13.2090023,15.3566912 13.5525417,15.718138 C13.896081,16.0795848 13.896037,16.6655534 13.5524977,17.0269539 L9.14973148,21.6592199 C8.80614815,22.0207129 8.24921065,22.0205741 7.90575926,21.6592199 L5.44745833,19.0727769 C5.10391898,18.7113301 5.10391898,18.1253615 5.44745833,17.763961 C5.79099769,17.4025605 6.34793519,17.4025142 6.69143056,17.763961 L8.52774537,19.6959961 Z" id="Shape"></path>
                            </g>
                        </g>
                    </g>
                </g>
            </g>
        </g>
    </g>
</svg>