<?xml version="1.0" encoding="UTF-8"?>
<svg width="25px" height="40px" viewBox="0 0 25 40" version="1.1" xmlns="http://www.w3.org/2000/svg" xmlns:xlink="http://www.w3.org/1999/xlink">
    <title>icon_solar 2</title>
    <g id="Latest" stroke="none" stroke-width="1" fill="none" fill-rule="evenodd">
        <g id="2_D_Powerwall_2" transform="translate(-623.000000, -1439.000000)">
            <g id="module/layout2-2" transform="translate(0.000000, 900.000000)">
                <g id="module/layout2">
                    <g id="img">
                        <g>
                            <g id="badge_SM" transform="translate(364.000000, 539.000000)">
                                <g id="speed">
                                    <g id="icon_solar-2" transform="translate(259.000000, 0.000000)">
                                        <g id="icon_solar">
                                            <g id="icon.solar_" transform="translate(0.000000, 8.000000)">
                                                <polygon id="Fill-1" fill="#000000" fill-rule="nonzero" points="4.13096525 8.62682316 6.93590731 8.62682316 6.93590731 7.78395055 4.13096525 7.78395055"></polygon>
                                                <polygon id="Fill-2" fill="#FFFFFF" fill-rule="nonzero" points="4.13096525 8.6262672 6.93590731 8.6262672 6.93590731 7.78339459 4.13096525 7.78339459"></polygon>
                                                <polygon id="Fill-3" fill="#000000" fill-rule="nonzero" points="15.8066409 8.62682316 18.611583 8.62682316 18.611583 7.78395055 15.8066409 7.78395055"></polygon>
                                                <polygon id="Fill-4" fill="#FFFFFF" fill-rule="nonzero" points="15.8066409 8.6262672 18.611027 8.6262672 18.611027 7.78339459 15.8066409 7.78339459"></polygon>
                                                <polygon id="Fill-5" fill="#000000" fill-rule="nonzero" points="11.1541622 3.38166486 11.990363 3.38166486 11.990363 0.555595367 11.1541622 0.555595367"></polygon>
                                                <polygon id="Fill-6" fill="#FFFFFF" fill-rule="nonzero" points="11.1541622 3.38166486 11.990363 3.38166486 11.990363 0.555595367 11.1541622 0.555595367"></polygon>
                                                <polygon id="Fill-7" fill="#000000" fill-rule="nonzero" points="6.82904711 13.6841699 8.81224404 11.6859614 8.22067648 11.0905019 6.23803552 13.0881544"></polygon>
                                                <polygon id="Fill-8" fill="#FFFFFF" fill-rule="nonzero" points="6.23781313 13.0884324 6.82938071 13.6844478 8.81202162 11.6862394 8.22101001 11.090224"></polygon>
                                                <polygon id="Fill-9" fill="#000000" fill-rule="nonzero" points="17.2399135 3.25868108 16.6489019 2.66266564 14.665149 4.66087413 15.2567166 5.25633359"></polygon>
                                                <polygon id="Fill-10" fill="#FFFFFF" fill-rule="nonzero" points="14.6653158 4.66092973 15.2563274 5.25638919 17.2400803 3.25873668 16.6490687 2.66272123"></polygon>
                                                <polygon id="Fill-11" fill="#010101" fill-rule="nonzero" points="8.81218839 4.66081853 6.82899152 2.66261004 6.23797992 3.25862549 8.22117684 5.25627799"></polygon>
                                                <polygon id="Fill-12" fill="#FFFFFF" fill-rule="nonzero" points="6.23781313 3.25884787 8.22101001 5.25650039 8.81202162 4.66104093 6.82938071 2.66283243"></polygon>
                                                <g id="Group-19" transform="translate(8.339768, 4.441371)" fill="#FFFFFF" fill-rule="nonzero" stroke="#FFFFFF">
                                                    <path d="M5.96553884,4.19301313 L3.43843089,4.19301313 L1.70601437,5.98384501 C0.823515606,5.48228157 0.228176062,4.53356826 0.228176062,3.44571429 C0.228176062,1.83502703 1.53418378,0.529019305 3.14487104,0.529019305 C4.75611429,0.529019305 6.06212201,1.83502703 6.06212201,3.44571429 C6.06212201,3.70403423 6.02855293,3.95450854 5.96553884,4.19301313 Z" id="Combined-Shape"></path>
                                                </g>
                                                <polygon id="Stroke-20" fill="#FFFFFF" fill-rule="nonzero" points="4.62195522 17.9159351 8.34371585 14.176939 13.8846579 14.176939 10.1628973 17.9159351"></polygon>
                                                <polygon id="Stroke-21" fill="#FFFFFF" fill-rule="nonzero" points="8.74052199 13.7800216 12.4622826 10.0410255 18.0026687 10.0410255 14.2814641 13.7800216"></polygon>
                                                <polygon id="Stroke-22" fill="#FFFFFF" fill-rule="nonzero" points="14.8970502 13.7800216 18.6182549 10.0410255 24.1591969 10.0410255 20.4379923 13.7800216"></polygon>
                                                <polygon id="Stroke-23" fill="#FFFFFF" fill-rule="nonzero" points="10.7953297 17.8817421 14.5170904 14.1427459 20.0580324 14.1427459 16.3362718 17.8817421"></polygon>
                                                <polygon id="Stroke-24" fill="#FFFFFF" fill-rule="nonzero" points="0.401309652 22.1363583 4.12307027 18.3973622 9.66401235 18.3973622 5.94225174 22.1363583"></polygon>
                                                <polygon id="Stroke-26" fill="#FFFFFF" fill-rule="nonzero" points="6.57468415 22.1021096 10.2964448 18.3631135 15.8373869 18.3631135 12.1156262 22.1021096"></polygon>
                                                <polygon id="Page-1" fill="#FFFFFF" fill-rule="nonzero" points="12.3763156 22.3521527 24.2197371 10.4457009 24.2197371 11.0016854 12.3763156 22.9426083"></polygon>
                                                <g id="Group-30" transform="translate(0.000000, 22.232877)" fill="#FFFFFF" fill-rule="nonzero">
                                                    <polygon id="Stroke-27" points="0.40142085 0.80450965 12.1132355 0.80450965 12.1132355 0.230177606 0.40142085 0.230177606"></polygon>
                                                </g>
                                            </g>
                                        </g>
                                    </g>
                                </g>
                            </g>
                        </g>
                    </g>
                </g>
            </g>
        </g>
    </g>
</svg>