<?xml version="1.0" encoding="UTF-8"?>
<svg width="27px" height="40px" viewBox="0 0 27 40" version="1.1" xmlns="http://www.w3.org/2000/svg" xmlns:xlink="http://www.w3.org/1999/xlink">
    <title>icon_hand 2</title>
    <g id="Latest" stroke="none" stroke-width="1" fill="none" fill-rule="evenodd">
        <g id="2_D_Powerwall_2" transform="translate(-560.000000, -4378.000000)" fill="#FFFFFF">
            <g id="Group-20" transform="translate(0.000000, 3600.000000)">
                <g id="badge_SM" transform="translate(560.000000, 778.000000)">
                    <g id="speed">
                        <g id="icon_hand-2">
                            <g id="icon_hand">
                                <g id="hand" transform="translate(0.000000, 10.000000)">
                                    <path d="M24.332093,7.22980981 L19.9464698,2.32815603 C19.0786727,1.44557031 17.6650032,1.44440257 16.7890595,2.33527365 C16.511476,2.61758765 16.3225201,2.95567492 16.224543,3.31633841 C15.3520985,2.63660506 14.0935412,2.70422251 13.2898775,3.52158186 C13.0134421,3.80389585 12.8244863,4.14198312 12.7241582,4.50142328 C11.8517137,3.82408099 10.5931564,3.89047511 9.79069552,4.70783445 C9.51890749,4.98425416 9.33230268,5.31400046 9.2308264,5.66515525 L7.16395801,3.56306427 C6.29616088,2.68047855 4.88249135,2.67931082 4.00654769,3.5701819 C3.13760238,4.45276762 3.13760238,5.89052823 4.00654769,6.77428169 L11.9473398,14.850397 L7.23744083,15.6024744 C5.96488676,15.7875327 5.00496272,16.9121177 5.00496272,18.2205933 C5.00496272,19.2016581 5.78992766,20 6.75455372,20 L17.7524827,20 C19.4659337,20 21.0767056,19.3214344 22.2885708,18.0889172 L24.1232903,16.2229313 C25.3340073,14.9927496 26,13.3556954 26,11.6154356 C26,9.99022566 25.4074901,8.43268873 24.332093,7.22980981 Z M23.2986315,15.384219 L21.463912,17.250205 C20.4724953,18.2585169 19.1544519,18.8136918 17.752428,18.8136918 L6.75449904,18.8136918 C6.4325743,18.8136918 6.17128382,18.5479485 6.17128382,18.2205377 C6.17128382,17.4992663 6.70080847,16.878865 7.41114242,16.7756595 L13.2606265,15.8408593 C13.4775758,15.8064389 13.6560341,15.6510744 13.7248696,15.4387134 C13.7925022,15.2275756 13.7377181,14.9938617 13.5825513,14.8361062 L4.83115179,5.93556947 C4.41710015,5.51446175 4.41710015,4.8287785 4.83700199,4.40055316 C5.04460189,4.19058317 5.31638992,4.0849865 5.58817795,4.0849865 C5.85996597,4.0849865 6.13169933,4.19058317 6.33935391,4.40172089 L12.1748413,10.3366539 C12.4022881,10.5679768 12.7720533,10.5679768 12.9995001,10.3366539 C13.1126221,10.2203808 13.1698118,10.0685752 13.1698118,9.91671392 C13.1698118,9.76485268 13.1126767,9.61304704 12.9983519,9.49677394 L10.615409,7.07322202 C10.2013573,6.6521143 10.2013573,5.96759879 10.6224073,5.53937344 C11.0353108,5.11943346 11.7106529,5.11943346 12.1235564,5.53937344 L14.5076475,7.9640931 C14.7350943,8.19541597 15.1048595,8.19541597 15.3323063,7.9640931 C15.4454283,7.84781999 15.502618,7.69601436 15.502618,7.54415312 C15.502618,7.39229188 15.445483,7.24048625 15.3311581,7.12421314 L14.114591,5.88691381 C13.7005393,5.4658061 13.7005393,4.78129058 14.1215893,4.35306524 C14.5344928,3.93312526 15.2098349,3.93312526 15.6227384,4.35306524 L16.8451011,5.59625885 C16.8474521,5.59742659 16.8462493,5.59742659 16.8462493,5.59742659 L16.8473974,5.59859432 C16.8485456,5.59976206 16.8485456,5.59976206 16.8485456,5.59976206 C16.8496938,5.60092979 16.8496938,5.60092979 16.8496938,5.60092979 L16.8508419,5.60092979 C16.8519901,5.60092979 16.8519901,5.60209753 16.8519901,5.60209753 C17.0805851,5.82274396 17.4422037,5.81801741 17.6649485,5.59025335 C17.8923953,5.35893048 17.8923953,4.982864 17.6649485,4.75154113 L17.6148118,4.70055001 C17.4142102,4.49652991 17.3033846,4.22483675 17.3033846,3.93657286 C17.3033846,3.64830898 17.4130074,3.37783916 17.620662,3.16670143 C18.0359165,2.74676145 18.7077594,2.74792919 19.103167,3.14651629 L23.4701461,8.02804053 C24.3483861,9.01155197 24.8336242,10.2856072 24.8336242,11.6154356 C24.8336242,13.038961 24.2889,14.3770748 23.2986315,15.384219 Z" id="Shape" fill-rule="nonzero"></path>
                                    <path d="M10.0125411,3.07027156 C9.16460827,1.20591075 7.29162138,0 5.24156778,0 C2.35171675,0 0,2.33652667 0,5.20771175 C0,7.24452377 1.21369594,9.10541277 3.09017721,9.94906207 C3.16820013,9.98378015 3.24977203,10 3.33014273,10 C3.55143517,10 3.76344567,9.8726823 3.86128827,9.65976283 C3.99292806,9.36813097 3.86243486,9.02556119 3.57010826,8.89363249 C2.10945803,8.23746081 1.16482924,6.79085613 1.16482924,5.20771175 C1.16482924,2.97420013 2.9935358,1.1572512 5.24162238,1.1572512 C6.83505899,1.1572512 8.29106824,2.0957785 8.95150578,3.54699417 C9.08314557,3.83862603 9.42908905,3.96941554 9.72141565,3.83629341 C10.0148888,3.70441896 10.1453274,3.36190342 10.0125411,3.07027156 Z" id="Path" fill-rule="nonzero"></path>
                                </g>
                            </g>
                        </g>
                    </g>
                </g>
            </g>
        </g>
    </g>
</svg>