<?xml version="1.0" encoding="UTF-8"?>
<svg width="24px" height="40px" viewBox="0 0 24 40" version="1.1" xmlns="http://www.w3.org/2000/svg" xmlns:xlink="http://www.w3.org/1999/xlink">
    <title>icon_keep-running 2</title>
    <defs>
        <filter id="filter-1">
            <feColorMatrix in="SourceGraphic" type="matrix" values="0 0 0 0 1.000000 0 0 0 0 1.000000 0 0 0 0 1.000000 0 0 0 1.000000 0"></feColorMatrix>
        </filter>
    </defs>
    <g id="Latest" stroke="none" stroke-width="1" fill="none" fill-rule="evenodd">
        <g id="2_D_Powerwall_2" transform="translate(-881.000000, -1439.000000)">
            <g id="module/layout2-2" transform="translate(0.000000, 900.000000)">
                <g id="module/layout2">
                    <g id="img">
                        <g>
                            <g id="badge_SM" transform="translate(364.000000, 539.000000)">
                                <g id="speed" transform="translate(518.000000, 0.000000)">
                                    <g id="icon_keep-running-2">
                                        <g id="icon_keep-running">
                                            <g id="Group-24" transform="translate(0.000000, 9.000000)">
                                                <g filter="url(#filter-1)" id="energy">
                                                    <g>
                                                        <path d="M1.86092178,9.51032184 C1.9077351,9.52075044 1.95446322,9.5257732 2.00050981,9.5257732 C2.29323147,9.5257732 2.55720064,9.32345832 2.62352305,9.02605162 C2.94580654,7.58120073 3.6396574,6.236507 4.6300636,5.13737491 C5.51044359,4.16036389 6.60887396,3.4009914 7.83351712,2.91638065 L7.34634342,3.85116648 C7.18332744,4.16393941 7.30489724,4.54949972 7.61789473,4.71235618 C7.7121603,4.76143445 7.8130709,4.7847179 7.91249063,4.78467534 C8.14310691,4.78467534 8.36584288,4.65953212 8.47970274,4.4409997 L9.68019381,2.13755563 C9.8429968,1.82520836 9.72193817,1.44011627 9.40966481,1.27687672 L7.10627076,0.0728626989 C6.79352885,-0.090589675 6.40747873,0.0302118451 6.2439516,0.342686813 C6.08038187,0.655161781 6.20131272,1.04093492 6.51396944,1.2043873 L7.45113028,1.69423363 C6.00822376,2.24924808 4.71406347,3.13584952 3.68046464,4.28286804 C2.54310127,5.5450694 1.74633778,7.08918355 1.37626127,8.74822514 C1.29950276,9.09241158 1.51648823,9.43361841 1.86092178,9.51032184 Z" id="Path" stroke="#FFFFFF" stroke-width="0.5" fill="#000000" fill-rule="nonzero"></path>
                                                        <path d="M20.1391365,12.4896843 C19.7945448,12.4128763 19.4532756,12.6298036 19.3764772,12.9740348 C19.05412,14.4190816 18.3602513,15.7639459 17.369923,16.8631863 C16.4892762,17.8407005 15.3904165,18.6004358 14.1653058,19.0850842 L14.6536122,18.14789 C14.8166224,17.8350378 14.6950569,17.4493797 14.3820706,17.286482 C14.0689991,17.1234991 13.6832609,17.2450976 13.5202933,17.5579073 L12.3198024,19.8619353 C12.1570053,20.1743617 12.2780596,20.5595514 12.5903644,20.7228323 L14.8937189,21.9271516 C14.9882793,21.9765829 15.0895271,22 15.189284,22 C15.4194661,22 15.641896,21.8752508 15.7560074,21.6572591 C15.9195287,21.3447049 15.7986447,20.958834 15.4859565,20.7953401 L14.5507459,20.3063915 C15.9928768,19.7512363 17.2863521,18.8647508 18.3194881,17.717995 C19.4567258,16.4556865 20.253546,14.9113938 20.6237371,13.252102 C20.7004929,12.9077857 20.4835578,12.5664498 20.1391365,12.4896843 Z" id="Path" stroke="#FFFFFF" stroke-width="0.5" fill="#000000" fill-rule="nonzero"></path>
                                                        <path d="M9.02679257,19.3794862 C7.58284826,19.0557981 6.23844372,18.3610757 5.13894877,17.3703759 C4.16101416,16.4892013 3.40034629,15.3902513 2.91444567,14.1654981 L3.84663544,14.6520078 C4.15926784,14.8151694 4.54533053,14.6945089 4.70888754,14.3825936 C4.87244455,14.0705933 4.75152311,13.6854061 4.4388907,13.522202 L2.1356332,12.3200594 C1.9853226,12.2416025 1.80992475,12.2259621 1.64807146,12.2767508 C1.48621817,12.3274546 1.35124104,12.4403374 1.27286998,12.5904937 L0.0723870898,14.8903963 C-0.0906162102,15.2026941 0.030944129,15.5876687 0.34391728,15.7503203 C0.438175525,15.799324 0.539078273,15.8225296 0.638490267,15.8225296 C0.869088612,15.8225296 1.09180726,15.6975765 1.20565827,15.479376 L1.69181444,14.5478802 C2.24812123,15.9895588 3.13541801,17.2830787 4.2825319,18.3167046 C5.54494497,19.4541606 7.08859942,20.2518631 8.74670119,20.6235349 C8.79385161,20.6341176 8.84091684,20.6391753 8.88734318,20.6391753 C9.17961615,20.6391753 9.44335183,20.4377202 9.51009501,20.1412328 C9.58744385,19.7976967 9.37107155,19.4566681 9.02679257,19.3794862 L9.02679257,19.3794862 Z" id="Path" stroke="#FFFFFF" stroke-width="0.5" fill="#000000" fill-rule="nonzero"></path>
                                                        <path d="M21.6573463,6.20174554 C21.3454645,6.03945348 20.9611922,6.16052582 20.7988439,6.47209095 L20.2854058,7.45733566 C19.7318263,6.011592 18.8454455,4.71440049 17.6980175,3.67869131 C16.4403064,2.54349502 14.9023685,1.74742849 13.2503709,1.37640857 C12.9074706,1.29948204 12.5669466,1.51482542 12.4898461,1.8576022 C12.4127879,2.20037898 12.628347,2.54065374 12.9713322,2.61770748 C14.4099771,2.94076495 15.749414,3.63412142 16.8447768,4.62284351 C17.8245099,5.50715926 18.585544,6.61114391 19.0691517,7.84171383 L18.0806349,7.32498303 C17.769135,7.16213967 17.3845232,7.28249109 17.2216658,7.59380178 C17.0587234,7.90511248 17.179148,8.28944824 17.4906479,8.4522916 L19.8426185,9.68180133 C20.1505117,9.84277877 20.54204,9.71920442 20.7021393,9.4119648 L21.9279409,7.05972647 C22.0902467,6.74816133 21.9691432,6.3640376 21.6573463,6.20174554 L21.6573463,6.20174554 Z" id="Path" stroke="#FFFFFF" stroke-width="0.5" fill="#000000" fill-rule="nonzero"></path>
                                                    </g>
                                                </g>
                                                <path d="M8.20455207,11.8704512 L10.5898942,11.8704512 C10.7041729,11.8704512 10.7955959,11.9556413 10.7955959,12.0621289 L10.7727401,15.8104942 C10.7727401,16.0128208 11.0698648,16.0767134 11.1612878,15.8850356 L13.9839725,10.0282148 C14.0411118,9.90042965 13.938261,9.7619957 13.7896986,9.77264447 L11.541491,9.81523953 C11.4272123,9.81523953 11.3357893,9.73004941 11.3357893,9.62356176 L11.3357893,6.18401066 C11.3472172,5.99233289 11.0615203,5.9284403 10.9586695,6.09882054 L8.0217061,11.6042321 C7.95313887,11.7320172 8.05598972,11.8704512 8.20455207,11.8704512 Z" id="Color" fill="#FFFFFF"></path>
                                            </g>
                                        </g>
                                    </g>
                                </g>
                            </g>
                        </g>
                    </g>
                </g>
            </g>
        </g>
    </g>
</svg>