<svg xmlns="http://www.w3.org/2000/svg" viewBox="0 0 36.8 34.68"><defs><style>.cls-1,.cls-3{fill:#fff;}.cls-2{fill:#010101;}.cls-3{stroke:#fff;}</style></defs><title>Solar</title><g id="Layer_2" data-name="Layer 2"><g id="Layer_1-2" data-name="Layer 1"><g id="icon.Solar"><g id="Solar"><g id="Symbols"><g id="V1_0.Hero" data-name="V1 0.Hero"><g id="Badges"><g id="icon.solar-2" data-name="icon.solar"><polygon id="Fill-1" points="5.8 12.5 10.1 12.5 10.1 11.2 5.8 11.2 5.8 12.5"/><polygon id="Fill-2" class="cls-1" points="5.8 12.5 10.1 12.5 10.1 11.2 5.8 11.2 5.8 12.5"/><polygon id="Fill-3" points="23.8 12.5 28.1 12.5 28.1 11.2 23.8 11.2 23.8 12.5"/><polygon id="Fill-4" class="cls-1" points="23.8 12.5 28.1 12.5 28.1 11.2 23.8 11.2 23.8 12.5"/><polygon id="Fill-5" points="16.6 4.4 17.9 4.4 17.9 0 16.6 0 16.6 4.4"/><polygon id="Fill-6" class="cls-1" points="16.6 4.4 17.9 4.4 17.9 0 16.6 0 16.6 4.4"/><polygon id="Fill-7" points="9.9 20.3 13 17.2 12.1 16.3 9 19.4 9.9 20.3"/><polygon id="Fill-8" class="cls-1" points="9 19.4 9.9 20.3 13 17.2 12.1 16.3 9 19.4"/><polygon id="Fill-9" points="26 4.2 25.1 3.3 22 6.4 22.9 7.3 26 4.2"/><polygon id="Fill-10" class="cls-1" points="22 6.4 22.9 7.3 26 4.2 25.1 3.3 22 6.4"/><polygon id="Fill-11" class="cls-2" points="13 6.4 9.9 3.3 9 4.2 12.1 7.3 13 6.4"/><polygon id="Fill-12" class="cls-1" points="9 4.2 12.1 7.3 13 6.4 9.9 3.3 9 4.2"/><g id="Group-19"><path id="Combined-Shape" class="cls-3" d="M21.46,12.55h-3.9l-2.7,2.8a4.42,4.42,0,0,1-2.3-3.9,4.5,4.5,0,0,1,9,0A2.16,2.16,0,0,1,21.46,12.55Z"/></g><polygon id="Stroke-20" class="cls-1" points="6.5 26.8 12.3 21 20.8 21 15.1 26.8 6.5 26.8"/><polygon id="Stroke-21" class="cls-1" points="12.9 20.4 18.6 14.7 27.2 14.7 21.4 20.4 12.9 20.4"/><polygon id="Stroke-22" class="cls-1" points="22.4 20.4 28.1 14.7 36.7 14.7 30.9 20.4 22.4 20.4"/><polygon id="Stroke-23" class="cls-1" points="16.1 26.8 21.8 21 30.3 21 24.6 26.8 16.1 26.8"/><polygon id="Stroke-24" class="cls-1" points="0 33.3 5.8 27.6 14.3 27.6 8.6 33.3 0 33.3"/><polygon id="Stroke-26" class="cls-1" points="9.6 33.3 15.3 27.5 23.8 27.5 18.1 33.3 9.6 33.3"/><polygon id="Page-1" class="cls-1" points="18.5 33.7 36.8 15.3 36.8 16.2 18.5 34.6 18.5 33.7"/><g id="Group-30"><polygon id="Stroke-27" class="cls-1" points="0 34.68 18.1 34.68 18.1 33.78 0 33.78 0 34.68"/></g></g></g></g></g></g></g></g></g></svg>