<svg width="40" height="26" xmlns="http://www.w3.org/2000/svg"><g fill-rule="nonzero" fill="none"><path d="M38.007.065L28.174.062h-.003l-.022.001c-1.35.042-3.033 1.125-3.34 2.461L20.16 23.1c-.306 1.349.527 2.446 1.868 2.466h10.33c1.32-.065 2.604-1.136 2.905-2.457l4.65-20.576c.312-1.362-.541-2.468-1.905-2.468" fill="#01798A"/><path d="M20.16 23.1l4.65-20.576c.306-1.336 1.988-2.42 3.34-2.46L24.24.06 17.194.059c-1.354.028-3.059 1.12-3.365 2.465L9.18 23.1c-.308 1.349.527 2.446 1.867 2.466h10.981c-1.34-.02-2.174-1.117-1.868-2.466" fill="#024381"/><path d="M9.179 23.1L13.83 2.524C14.136 1.178 15.84.087 17.195.06L8.172.057c-1.362 0-3.109 1.104-3.42 2.467L.1 23.1a2.58 2.58 0 00-.053.37v.38c.091.984.842 1.7 1.92 1.716h9.08c-1.341-.02-2.176-1.117-1.868-2.466" fill="#DD0228"/><path d="M17.386 15.053h.17c.157 0 .263-.053.313-.157l.443-.665h1.189l-.248.437h1.425l-.181.67H18.8c-.195.293-.435.431-.724.415h-.883l.192-.7zm-.195.959h3.121l-.199.727h-1.255l-.192.701h1.222l-.2.727h-1.22l-.284 1.037c-.07.174.022.251.275.234h.996l-.185.676H17.36c-.363 0-.487-.208-.373-.623l.363-1.324h-.781l.198-.727h.781l.192-.701h-.747l.199-.727zm4.982-1.786l-.05.426s.59-.442 1.124-.442h1.977l-.756 2.736c-.063.312-.332.468-.806.468h-2.24l-.525 1.92c-.03.104.013.157.126.157h.44l-.162.596h-1.12c-.43 0-.609-.13-.538-.39l1.483-5.47h1.047zm1.673.774h-1.763l-.212.738s.294-.212.785-.22c.49-.007 1.049 0 1.049 0l.141-.518zm-.639 1.712c.13.018.204-.034.212-.156l.108-.389h-1.766l-.148.545h1.594zm-1.191.884h1.018l-.019.44h.271c.137 0 .205-.043.205-.13l.08-.285h.847l-.113.416c-.096.346-.35.527-.761.545H23l-.002.753c-.01.12.099.182.324.182h.51l-.165.597h-1.223c-.343.016-.51-.148-.507-.494l.078-2.024zM9.677 10.582c-.138.677-.458 1.196-.955 1.565-.492.363-1.127.545-1.904.545-.731 0-1.267-.186-1.61-.558-.237-.265-.355-.602-.355-1.009 0-.168.02-.349.06-.543l.829-3.992h1.25l-.816 3.946c-.024.1-.035.201-.034.303a.772.772 0 00.15.497c.148.192.389.288.724.288.384 0 .701-.094.947-.284.246-.189.407-.456.48-.804L9.26 6.59h1.245l-.829 3.993zm5.252-1.57h.979l-.767 3.562h-.978l.766-3.563zm.308-1.299h.988l-.185.865h-.988l.185-.865zm1.538 4.59c-.256-.245-.386-.575-.387-.994a2.665 2.665 0 01.052-.502c.116-.58.364-1.039.745-1.378.38-.34.84-.51 1.376-.51.44 0 .79.122 1.045.368.255.248.383.582.383 1.006 0 .073-.005.157-.015.247-.01.09-.024.178-.04.266-.114.57-.36 1.025-.742 1.358a2.007 2.007 0 01-1.372.502c-.442 0-.79-.12-1.045-.363zm1.866-.706c.173-.187.296-.47.372-.848a2.077 2.077 0 00.036-.35c0-.22-.056-.39-.168-.511-.112-.122-.27-.182-.476-.182a.857.857 0 00-.665.286c-.175.19-.299.48-.376.864-.011.059-.02.118-.028.175-.006.06-.008.115-.007.165 0 .218.056.387.168.506.112.12.27.178.478.178a.862.862 0 00.666-.283z" fill="#FFF"/><path d="M28.171.065L24.24.061l3.91.01c.007 0 .015-.006.022-.006" fill="#E02F41"/><path d="M24.24.071L17.25.057a.232.232 0 00-.055.009l7.044.005" fill="#2E4F7D"/><path d="M26.344 15.083l.236-.832h1.194l-.052.306s.61-.306 1.05-.306h1.476l-.235.832h-.232l-1.114 3.92h.233l-.221.778h-.233l-.096.337h-1.156l.096-.337h-2.281l.222-.779h.229l1.114-3.92h-.23zm1.288 0l-.304 1.06s.52-.2.968-.256c.099-.37.228-.804.228-.804h-.892zm-.445 1.558l-.305 1.11s.577-.283.972-.307c.114-.43.228-.803.228-.803h-.895zm.224 2.361l.228-.806h-.891l-.23.806h.893zm2.887-4.802h1.123l.048.414c-.008.106.055.156.188.156h.198l-.2.702h-.825c-.315.016-.477-.105-.492-.364l-.04-.908zm-.329 1.505h3.636l-.213.754h-1.158l-.198.7h1.156l-.215.752H31.69l-.29.441h.63l.145.883c.017.087.095.13.229.13h.195l-.205.727h-.694c-.359.018-.544-.103-.56-.363l-.167-.806-.573.858a.621.621 0 01-.625.337h-1.059l.206-.727h.33c.136 0 .249-.06.35-.182l.898-1.298h-1.157l.214-.752h1.256l.2-.7h-1.257l.214-.754zM10.83 9.01h.883l-.1.515.126-.147a1.374 1.374 0 011.044-.459c.372 0 .64.108.808.326.166.217.211.517.133.902l-.487 2.428h-.907l.439-2.2c.045-.228.033-.397-.037-.506-.07-.11-.201-.164-.391-.164a.849.849 0 00-.59.218c-.161.145-.267.347-.32.605l-.404 2.047h-.91l.713-3.565zm10.128 0h.884l-.1.515.125-.147a1.377 1.377 0 011.045-.459c.372 0 .64.108.807.326.165.217.213.517.132.902l-.484 2.428h-.91l.44-2.2c.045-.228.033-.397-.036-.506-.072-.11-.201-.164-.39-.164a.855.855 0 00-.592.218c-.16.145-.268.347-.318.605l-.407 2.047h-.908l.712-3.565zm4.37-2.21h2.566c.493 0 .875.112 1.137.331.261.223.392.542.392.957v.013c0 .079-.005.168-.013.265-.013.098-.03.195-.05.292-.113.55-.375.992-.78 1.327a2.208 2.208 0 01-1.444.502h-1.377l-.425 2.088H24.14L25.327 6.8zm.641 2.683h1.141c.298 0 .534-.069.706-.206.17-.138.284-.349.346-.635.01-.053.017-.1.024-.144.004-.042.01-.083.01-.123 0-.205-.074-.353-.22-.446-.145-.095-.374-.14-.69-.14h-.97l-.347 1.694zm8.787 3.782c-.376.8-.735 1.268-.946 1.485-.211.215-.63.714-1.636.676l.087-.61c.847-.262 1.305-1.438 1.566-1.96l-.311-3.836.655-.009h.55l.06 2.407 1.03-2.407h1.043l-2.098 4.254zM31.838 9.3l-.415.285c-.433-.339-.828-.549-1.592-.195-1.04.483-1.908 4.18.955 2.962l.163.194 1.126.029.74-3.36-.977.085zm-.64 1.837c-.182.533-.586.886-.902.786-.317-.098-.43-.613-.246-1.148.18-.535.587-.886.901-.786.317.098.43.613.246 1.148z" fill="#FFF"/></g></svg>